<svg xmlns="http://www.w3.org/2000/svg" xmlns:xlink="http://www.w3.org/1999/xlink" width="244" height="248" viewBox="0 0 244 248"><defs><path id="a" d="M0 .732h243.56V204H0z"/><path id="c" d="M.62.112h174.51V96.16H.62z"/></defs><g fill="none" fill-rule="evenodd" opacity=".497"><g transform="translate(0 43.5)"><mask id="b" fill="#fff"><use xlink:href="#a"/></mask><path fill="#373D43" d="M116.039 103.005c0 32.049-.08 64.097.096 96.144.023 4.137-1.038 5.173-5.095 4.7-17.436-2.038-34.224-6.799-49.442-15.213-14.27-7.89-20.626-21.956-22.912-37.824-3.443-23.9 5.355-43.67 20.091-61.776C69.919 75.348 81.711 62.06 89.441 45.873c6.002-12.566 8.959-25.78 8.963-39.649.001-2.924.446-4.462 3.786-4.456 3.355.007 6.732-.407 10.06-.905 2.995-.447 3.929.555 3.849 3.584-.191 7.242-.06 14.492-.06 21.74v76.818m11.25-.556c0-32.225.066-64.45-.086-96.673-.018-3.92.737-5.616 4.965-4.873 3.784.666 8.343-.292 11.308 1.523 3.42 2.094 1.256 7.054 1.546 10.695 1.726 21.727 10.97 40.103 24.261 56.827 8.708 10.957 17.626 21.754 25.481 33.37 15.976 23.626 13.237 59.799-6.055 79.22-3.536 3.56-7.558 6.315-12.22 8.39-13.732 6.115-27.844 10.775-42.795 12.69-6.403.82-6.404.849-6.404-5.462-.002-31.903-.001-63.805-.001-95.707" mask="url(#b)"/><path fill="#373D43" d="M27.333 159.66C7.853 136.155-5.294 110.747 2.076 79.07c4.076-17.518 14.119-31.608 27.015-43.7C44.654 20.777 63.177 11.498 83.528 5.565c3.657-1.066 3.932.223 3.865 3.321-.444 20.61-9.104 37.863-21.431 53.69-8.5 10.912-17.492 21.497-25.243 32.926C27.563 114.9 24.093 136.64 27.333 159.66m188.049.772c3.34-19.418 1.194-37.37-6.73-54.464-5.954-12.843-15.465-23.263-24.145-34.216-9.91-12.507-19.645-25.072-24.732-40.549-2.49-7.57-3.572-15.318-3.858-23.232-.076-2.099.147-3.452 2.894-2.643 33.847 9.961 61.968 27.51 77.72 60.549 11.262 23.624 8.223 46.97-3.65 69.555-4.628 8.804-9.902 17.225-17.5 25" mask="url(#b)"/></g><path fill="#373D43" d="M158 37.761c4.167-10.644 12.98-12.675 22.243-13.945 7.934-1.088 14.542.541 20.98 6.318C221.59 48.41 235.175 70.461 241 97.5c-19.1-31.876-47.818-50.085-83-59.739"/><g transform="translate(1 .5)"><mask id="d" fill="#fff"><use xlink:href="#c"/></mask><path fill="#373D43" d="M.62 96.159c6.374-29.711 22.336-53.312 46.357-71.751.503-.386 1.061-.939 1.622-.975 10.688-.686 21.348-1.015 30.43 6.074 2.29 1.79 3.946 4.186 4.872 7.582C48.855 46.493 19.864 64.485.62 96.159M175.13 12.28c-4.704 1.573-8.494 2.246-11.972 3.976-6.601 3.283-11.692 8.119-14.598 14.735-1.519 3.46-3.408 3.9-6.628 3.396-3.966-.621-7.991-.922-12.002-1.196-2.298-.156-3.416-.854-3.375-3.436.139-8.795.108-17.595.015-26.392-.025-2.383.506-3.468 3.237-3.215 15.492 1.435 30.416 4.862 45.323 12.132m-107.506-.337C79.399 6.377 91.594 2.64 104.377 1.07c11.038-1.356 11.067-1.123 11.066 9.785 0 6.24-.09 12.48.042 18.717.051 2.388-.677 3.603-3.185 3.586a15.607 15.607 0 0 0-3.362.324c-8.46 1.815-15.076 1.258-19.369-8.343-2.977-6.659-10.571-9.458-17.694-11.496-1.35-.385-2.942-.107-4.251-1.699" mask="url(#d)"/></g></g></svg>