<svg xmlns="http://www.w3.org/2000/svg" width="244" height="244" viewBox="0 0 244 244"><path fill="#373D43" fill-rule="evenodd" d="M122.116 170.063c-8.364 0-16.73.1-25.092-.06-2.48-.049-4.056.701-5.508 2.712a800.476 800.476 0 0 1-15.332 20.531c-1.477 1.911-1.597 3.237-.22 5.343 7.01 10.722 13.83 21.567 20.678 32.395.962 1.52 1.948 2.544 3.924 2.94 15.08 3.021 30.1 2.608 45.121-.35 2.158-.425 3.551-1.487 4.664-3.487a1926.345 1926.345 0 0 1 17.845-31.332c1.114-1.916 1.116-3.244-.28-5.029a992.348 992.348 0 0 1-16.067-21.163c-1.355-1.831-2.812-2.59-5.114-2.552-8.204.135-16.412.052-24.619.052zm56.68 19.764c11.842-1.802 24.107-3.685 36.38-5.516 1.87-.278 2.59-1.655 3.415-3.007 8.823-14.431 14.132-30.07 16.362-46.797.272-2.041-.674-3.258-1.814-4.616-6.94-8.28-13.905-16.54-20.724-24.92-1.514-1.86-2.795-2.419-5.184-1.611-11.893 4.02-23.842 7.877-35.8 11.703-2.03.65-3.054 1.674-3.571 3.833a2950.741 2950.741 0 0 1-10.658 42.925c-.452 1.773-.143 2.977.906 4.335 5.628 7.29 11.2 14.625 16.78 21.952.888 1.165 1.736 2.343 3.908 1.72zm-113.77 1.061c1.89.536 2.684-.959 3.633-2.224 5.33-7.105 10.63-14.235 16.034-21.284 1.262-1.645 1.601-3.073 1.056-5.18a2181.993 2181.993 0 0 1-10.424-41.906c-.597-2.511-1.767-3.676-4.164-4.437-11.674-3.709-23.303-7.554-34.921-11.43-2.155-.72-3.576-.686-5.226 1.339-6.918 8.487-14.085 16.775-21.166 25.132-1.02 1.202-2.067 2.26-1.808 4.14 2.351 16.978 7.554 32.944 16.843 47.49.677 1.06 1.276 2.215 2.73 2.444 12.429 1.962 24.855 3.93 37.414 5.916zm53.295-134.792c0-5.716-.107-11.435.046-17.147.07-2.62-.845-3.913-3.368-4.88-12.33-4.722-24.584-9.643-36.84-14.556-1.913-.767-3.504-.667-5.403.254-17.588 8.518-31.893 20.845-43.425 36.489-1.35 1.832-1.62 3.466-1.048 5.701A1017.675 1017.675 0 0 1 35.3 91.112c.556 2.468 1.66 3.743 4.107 4.538 11.82 3.838 23.591 7.827 35.342 11.87 2.304.792 3.982.694 6.001-.98 7.716-6.404 15.134-13.363 23.598-18.626 11.408-7.095 16.593-16.193 13.995-29.441-.15-.765-.02-1.584-.021-2.377zm97.443 4.849c.778-2.384-.54-3.516-1.444-4.759-11.368-15.657-25.816-27.684-43.121-36.363-1.817-.912-3.382-1.133-5.347-.322-12.128 5.005-24.278 9.959-36.493 14.746-2.472.969-3.386 2.242-3.358 4.862.114 11.375.093 22.753.011 34.129-.017 2.26.7 3.814 2.494 5.234a3704.513 3704.513 0 0 1 35.201 28.202c1.674 1.36 3.105 1.656 5.106.97 11.977-4.11 23.986-8.132 35.988-12.168 1.52-.512 2.962-.931 3.409-2.839 2.523-10.76 5.118-21.503 7.554-31.692zm28.179 64.427c-2.132 69.547-59.99 120.718-125.661 118.562C49.285 241.67-2.036 184.25.062 118.424 2.269 49.13 59.899-1.863 125.453.052c68.792 2.147 120.506 59.603 118.49 125.32z" opacity=".497"/></svg>