<svg xmlns="http://www.w3.org/2000/svg" xmlns:xlink="http://www.w3.org/1999/xlink" width="219.592" height="2450" viewBox="0 0 219.592 2450"><svg width="18" height="18" viewBox="-1 -1 18 18" id="close-a" y="0"><g fill="#666"><path d="M4.177 3.823l8 8-.354.354-8-8z"></path><path d="M12.177 4.177l-8 8-.354-.354 8-8z"></path></g></svg><svg width="18" height="18" viewBox="-1 -1 18 18" id="close-b" y="18"><g fill="#FFF"><path d="M4.177 3.823l8 8-.354.354-8-8z"></path><path d="M12.177 4.177l-8 8-.354-.354 8-8z"></path></g></svg><svg width="18" height="18" viewBox="-1 -1 18 18" id="close-c" y="36"><g fill="#221F1F"><path d="M4.177 3.823l8 8-.354.354-8-8 .354-.354z"></path><path d="M12.177 4.177l-8 8-.354-.354 8-8 .354.354z"></path></g></svg><svg width="23" height="24" viewBox="-1 -1 23 24" id="close-desktop-a" y="54"><path fill="#797979" fill-rule="evenodd" d="M12.143 11l8.464-8.464L18.964.893 10.5 9.357 2.036.893.393 2.536 8.857 11 .393 19.464l1.643 1.643 8.464-8.464 8.464 8.464 1.643-1.643L12.143 11z"></path></svg><svg width="54" height="46" viewBox="-1 -1 54 46" id="close-mobile-a" y="78"><path fill="none" d="M0 0h52v44H0z"></path><path d="M35.545 33.668L14.332 12.454l2.12-2.12 21.214 21.213z"></path><path d="M14.332 31.547l21.214-21.214 2.122 2.121L16.453 33.67z"></path></svg><svg width="37" height="40" viewBox="-1 -1 37 40" id="comentarios-desconectar-b" y="124"><g fill="#FFF"><path d="M25.9 13.348l-2.1 1.96 2.38 2.24H14.7v2.8h11.48l-2.38 2.24 2.1 1.96 5.6-5.6"></path><path d="M9.24 25.807c-1.96-1.82-2.94-4.2-2.94-6.86s.98-5.04 2.94-6.86c3.78-3.78 10.08-3.78 13.86 0l1.96-1.96c-4.9-4.9-12.88-4.9-17.78 0-2.52 2.24-3.78 5.46-3.78 8.82 0 3.36 1.26 6.58 3.64 8.96 2.52 2.38 5.74 3.64 8.96 3.64s6.44-1.26 8.96-3.64l-1.96-2.1c-3.92 3.92-10.08 3.92-13.86 0z"></path></g><path fill="none" d="M0 0h35v38H0z"></path></svg><svg width="18" height="14" viewBox="-1 -1 18 14" id="comment-16x20" y="164"><path fill="#FFF" fill-rule="evenodd" d="M14.269 0H1.732C.776 0 0 .775 0 1.732v6.75c0 .956.776 1.732 1.732 1.732H3.75V12l2.799-1.786h7.72c.956 0 1.731-.776 1.731-1.732v-6.75C16 .775 15.225 0 14.269 0"></path></svg><svg width="18" height="18" viewBox="-1 -1 18 18" id="down-a" y="178"><path fill="#666" d="M4.177 5.823L8 9.646l3.823-3.823.354.354L8 10.354 3.823 6.177z"></path></svg><svg width="18" height="18" viewBox="-1 -1 18 18" id="down-b" y="196"><path fill="#FFF" d="M4.177 5.735L8 9.559l3.823-3.824.354.353L8 10.266 3.823 6.088z"></path></svg><svg id="english-lang" width="32" height="32" viewBox="-1 -1 32 32" y="214"><circle id="a_1_" fill="#FFF" cx="15" cy="15" r="15"></circle><defs><circle id="SVGID_1_" cx="15" cy="15" r="15"></circle></defs><clipPath id="SVGID_2_"><use xlink:href="#SVGID_1_" overflow="visible"></use></clipPath><g clip-path="url(#SVGID_2_)"><path fill="#1100A5" d="M-2.96 0h15.493v16.432H-2.96z"></path><path fill="#F00" d="M17.122 18.723l16.032.066v-7.156H20.098L9.276 18.689l3.01.012v13.074h4.835l.001-13.052zM9.382 21.02H5.646L.001 24.729l1.606 1.626z"></path><path fill="#F00" d="M23.29 21.02h3.95l5.968 3.709-1.698 1.626z"></path><path fill="#1100A5" d="M10.758 21.217L2.122 26.8l8.498 5.323z"></path><path fill="#D8D8D8" d="M1.777 13.433l-.551.401.211-.648-.552-.4.682.001.21-.649.21.649.681-.001-.551.4.211.648z"></path><path fill="#FFF" d="M10.758 1.838l-.552.401.212-.648-.552-.4h.681l.211-.648.21.648h.681l-.552.4.212.648zM10.758 5.144l-.552.401.212-.648-.552-.4h.681l.211-.648.21.648h.681l-.552.4.212.648zM10.758 8.499l-.552.401.212-.648-.552-.4.681.001.211-.649.21.649.681-.001-.552.4.212.648zM10.758 11.805l-.552.401.212-.648-.552-.4.681.001.211-.649.21.649.681-.001-.552.4.212.648zM10.758 15.111l-.552.401.212-.648-.552-.4h.681l.211-.648.21.648h.681l-.552.4.212.648zM7.155 1.838l-.551.401.211-.648-.552-.4h.682l.21-.648.21.648h.682l-.552.4.211.648zM7.155 5.144l-.551.401.211-.648-.552-.4h.682l.21-.648.21.648h.682l-.552.4.211.648zM7.155 8.499l-.551.401.211-.648-.552-.4.682.001.21-.649.21.649.682-.001-.552.4.211.648zM7.155 11.805l-.551.401.211-.648-.552-.4.682.001.21-.649.21.649.682-.001-.552.4.211.648zM7.155 15.111l-.551.401.211-.648-.552-.4h.682l.21-.648.21.648h.682l-.552.4.211.648zM3.602 5.144l-.551.401.212-.648-.552-.4h.681l.21-.648.21.648h.682l-.552.4.212.648zM3.602 8.499l-.551.401.212-.648-.552-.4.681.001.21-.649.21.649.682-.001-.552.4.212.648zM3.602 11.805l-.551.401.212-.648-.552-.4.681.001.21-.649.21.649.682-.001-.552.4.212.648zM3.602 15.111l-.551.401.212-.648-.552-.4h.681l.21-.648.21.648h.682l-.552.4.212.648zM.001 11.805l-.552.401.212-.648-.552-.4.681.001.211-.649.21.649.681-.001-.552.4.212.648zM.001 15.111l-.552.401.212-.648-.552-.4h.681l.211-.648.21.648h.681l-.552.4.212.648zM1.777 6.821l-.551.402.211-.649-.552-.4.682.001.21-.648.21.648.681-.001-.551.4.211.649zM1.777 10.127l-.551.401.211-.648-.552-.4.682.001.21-.649.21.649.681-.001-.551.4.211.648zM5.379 3.466l-.551.401.211-.648-.552-.4.682.001.21-.649.21.649.681-.001-.551.4.211.648zM5.379 6.821l-.551.402.211-.649-.552-.4.682.001.21-.648.21.648.681-.001-.551.4.211.649zM5.379 10.127l-.551.401.211-.648-.552-.4.682.001.21-.649.21.649.681-.001-.551.4.211.648zM5.379 13.433l-.551.401.211-.648-.552-.4.682.001.21-.649.21.649.681-.001-.551.4.211.648zM8.981 3.466l-.552.401.212-.648-.552-.4h.681l.211-.648.21.648h.681l-.552.4.212.648zM8.981 6.821l-.552.401.212-.648-.552-.4.681.001.211-.649.21.649.681-.001-.552.4.212.648zM8.981 10.127l-.552.401.212-.648-.552-.4.681.001.211-.649.21.649.681-.001-.552.4.212.648zM8.981 13.433l-.552.401.212-.648-.552-.4.681.001.211-.649.21.649.681-.001-.552.4.212.648z"></path><path fill="#1100A5" d="M18.602 21.217l8.634 5.583-8.496 5.323z"></path><path fill="#D50000" d="M12.533.049H25.51v2.368H12.533zM12.533 4.786h15.74v2.368h-15.74zM12.533 9.276h11.349l-3.777 2.369h-7.572zM-2.022 18.701H9.326L5.55 21.068h-7.572zM12.535 14.013h3.897l-3.606 2.369h-.291z"></path></g></svg><svg width="34" height="34" viewBox="-1 -1 34 34" id="facebook-a" y="246"><path fill="#3B5998" d="M17.22 23.875V16.69h2.415l.359-2.797H17.22v-1.789c0-.809.226-1.363 1.388-1.363h1.484V8.234a19.48 19.48 0 0 0-2.16-.109c-2.141 0-3.602 1.309-3.602 3.705v2.067h-2.421v2.799h2.421v7.178h2.89z"></path></svg><svg width="34" height="34" viewBox="-1 -1 34 34" id="facebook-b" y="280"><path fill="#FFF" d="M17.22 23.875V16.69h2.415l.359-2.797H17.22v-1.789c0-.809.226-1.363 1.388-1.363h1.484V8.234a19.48 19.48 0 0 0-2.16-.109c-2.141 0-3.602 1.309-3.602 3.705v2.067h-2.421v2.799h2.421v7.178h2.89z"></path></svg><svg width="27" height="27" viewBox="-1 -1 27 27" id="facebook-c" y="314"><path fill="#44619d" d="M13.094 18.575v-5.647h1.896l.283-2.198h-2.18V9.324c0-.636.176-1.07 1.09-1.07h1.168V6.28a15.312 15.312 0 0 0-1.698-.085c-1.682 0-2.83 1.03-2.83 2.912v1.624H8.92v2.2h1.902v5.64h2.272z"></path></svg><svg width="27" height="27" viewBox="-1 -1 27 27" id="facebook-d" y="341"><path fill="#FFF" d="M13.094 18.575v-5.647h1.896l.283-2.198h-2.18V9.324c0-.636.176-1.07 1.09-1.07h1.168V6.28a15.312 15.312 0 0 0-1.698-.085c-1.682 0-2.83 1.03-2.83 2.912v1.624H8.92v2.2h1.902v5.64h2.272z"></path></svg><svg width="26" height="26" viewBox="-1 -1 26 26" id="flag-ar-a" y="368"><path fill="#686868" d="M3 15.332h18V18H3z"></path><path fill="#8E8E8E" d="M3 12h18v3.332H3z"></path><path fill="#B2B2B2" d="M3 6h18v6H3z"></path><path fill="#FFF" d="M2 5V19h20V5H2zm19 10.332V18H3V6h18v9.332z"></path><g id="Group_1_"><g id="Group"><path fill="#FFF" d="M21 6v12H3V6h18z"></path><path fill="#74ACDF" d="M21 6v4H3V6h18zM21 14v4H3v-4h18z"></path></g><path fill="#F6B40E" d="M12 10.667a1.333 1.333 0 1 1 0 2.667 1.333 1.333 0 0 1 0-2.667z"></path><path fill="#FFF" d="M21 6v12H3V6h18zm1-1H2v14h20V5z"></path></g></svg><svg width="26" height="26" viewBox="-1 -1 26 26" id="flag-ar-b" y="394"><path fill="#686868" d="M3 15.332h18V18H3z"></path><path fill="#8E8E8E" d="M3 12h18v3.332H3z"></path><path fill="#B2B2B2" d="M3 6h18v6H3z"></path><path fill="#FFF" d="M2 5V19h20V5H2zm19 10.332V18H3V6h18v9.332z"></path><path fill="#FFF" d="M21 6v12H3V6h18z"></path><path fill="#A1A1A1" d="M21 6v4H3V6h18zM21 14v4H3v-4h18z"></path><path fill="#B6B6B6" d="M12 10.667a1.333 1.333 0 1 1 0 2.667 1.333 1.333 0 0 1 0-2.667z"></path><path fill="#FFF" d="M21 6v12H3V6h18zm1-1H2v14h20V5z"></path></svg><svg id="flag-br-a" width="26" height="26" viewBox="-1 -1 26 26" y="420"><path fill="#3C9242" d="M3 6h18v12H3V6z"></path><path fill="#FFC400" d="M18.873 12l-6.826 4.574L5.127 12l6.826-4.574z"></path><circle fill="#2D146E" cx="11.999" cy="12" r="2.896"></circle><path fill="#FFF" d="M10.506 10.61c-.37 0-.732.038-1.087.098a2.807 2.807 0 0 0-.225.604 5.957 5.957 0 0 1 5.539 1.608 2.85 2.85 0 0 0 .133-.624 6.485 6.485 0 0 0-4.36-1.686z"></path><path fill="#FFF" d="M21 6v12H3V6h18m1-1H2v14h20V5z"></path></svg><svg id="flag-br-b" width="26" height="26" viewBox="-1 -1 26 26" y="446"><path fill="#454545" d="M3 6h18v12H3V6z"></path><path fill="#C0C0C0" d="M18.873 12l-6.826 4.574L5.127 12l6.826-4.574z"></path><circle fill="#454545" cx="11.999" cy="12" r="2.896"></circle><path fill="#C0C0C0" d="M10.506 10.61c-.37 0-.732.038-1.087.098a2.807 2.807 0 0 0-.225.604 5.957 5.957 0 0 1 5.539 1.608 2.85 2.85 0 0 0 .133-.624 6.485 6.485 0 0 0-4.36-1.686z"></path><path fill="#EEE" d="M21 6v12H3V6h18m1-1H2v14h20V5z"></path><path fill="#FFF" d="M21 6v12H3V6h18m1-1H2v14h20V5z"></path></svg><svg id="flag-co-a" width="26" height="26" viewBox="-1 -1 26 26" y="472"><path fill="#CE1126" d="M3 15.332h18V18H3z"></path><path fill="#003893" d="M3 12h18v3.332H3z"></path><path fill="#FCD116" d="M3 6h18v6H3z"></path><path fill="#FFF" d="M21 6v12H3V6h18m1-1H2v14h20V5z"></path></svg><svg id="flag-co-b" width="26" height="26" viewBox="-1 -1 26 26" y="498"><path fill="#686868" d="M3 15.332h18V18H3z"></path><path fill="#8E8E8E" d="M3 12h18v3.332H3z"></path><path fill="#B2B2B2" d="M3 6h18v6H3z"></path><path fill="#FFF" d="M2 5V19h20V5H2zm19 10.332V18H3V6h18v9.332z"></path></svg><svg width="26" height="26" viewBox="-1 -1 26 26" id="flag-en-a" y="524"><circle cx="12" cy="12" r="10" fill="#fff"></circle><circle cx="12" cy="12" r="8.5" fill="#aed6f1"></circle><g fill="#34495e"><path d="M16.116 7.003l.018.134-.2.042-.027.284h.24l.319-.03.164-.197-.174-.067-.096-.11-.144-.234-.069-.33-.272.056-.075.116v.131l.131.089z"></path><path d="M15.886 7.113l.013-.178-.158-.069-.222.051-.165.265v.172h.192zm-4.573.758l-.049.126h-.236v.122h.056l.008.06.146-.012.091-.056.023-.113.117-.01.047-.095-.107-.022h-.096zm-.609.222l-.009.119.171-.014.018-.12-.103-.081z"></path><path d="M20.998 11.907a8.826 8.826 0 0 0-.635-3.233l-.068-.172a9.003 9.003 0 0 0-1.829-2.755A8.978 8.978 0 0 0 12 3a8.961 8.961 0 0 0-6.093 2.384 8.91 8.91 0 0 0-1.029 1.124A8.948 8.948 0 0 0 3 12c0 4.963 4.038 9 9 9 3.491 0 6.522-2 8.013-4.911A8.971 8.971 0 0 0 21 12l-.002-.093zm-1.694-3.596l.053-.059c.068.133.133.268.193.404l-.085-.003-.161.022v-.364zm-1.301-1.572l.002-.401a8.2 8.2 0 0 1 .408.464l-.163.24-.566-.004-.036-.118.355-.181zM7.147 5.74v-.014h.18l.016-.063h.295v.128l-.084.114h-.408l.001-.165zm.288.402s.181-.031.195-.031c.016 0 0 .179 0 .179l-.406.027-.077-.092.288-.083zm12.443 3.573h-.659l-.401-.299-.422.041v.258h-.134l-.145-.103-.731-.185v-.474l-.927.072-.288.154h-.367l-.18-.018-.447.248v.466l-.914.66.076.281h.186l-.049.267-.13.048-.007.7.789.9h.344l.021-.056h.617l.179-.165h.35l.192.193.522.054-.07.694.58 1.023-.306.582.021.275.24.24v.66l.316.425v.549h.271a8.25 8.25 0 0 1-6.407 3.054c-4.552 0-8.257-3.705-8.257-8.26 0-1.146.234-2.239.658-3.232V8.51l.296-.358c.103-.194.212-.383.329-.566l.014.149-.342.416c-.107.2-.207.405-.297.616v.47l.344.165v.654l.329.562.268.041.034-.192-.315-.488-.062-.473h.186l.078.487.455.666-.117.214.291.445.721.178v-.116l.287.041-.028.206.227.041.351.096.494.563.632.047.061.516-.432.301-.02.46-.063.281.625.783.046.268s.227.062.255.062.509.364.509.364v1.414l.17.048-.115.65.287.385-.053.646.381.67.489.427.491.01.049-.159-.361-.304.021-.151.065-.185.013-.189-.245-.007-.123-.154.203-.195.027-.148-.227-.064.014-.138.323-.049.491-.235.164-.302.516-.659-.117-.515.158-.274.473.015.318-.252.104-.994.354-.45.063-.289-.323-.103-.213-.349-.728-.009-.576-.22-.027-.411-.193-.336-.521-.008-.301-.473-.268-.131-.014.145-.487.029-.179-.249-.508-.103-.42.484-.659-.111-.047-.743-.482-.083.193-.364-.055-.209-.632.422-.397-.048-.142-.311.088-.32.219-.404.504-.255.974-.001-.002.298.35.162-.028-.508.252-.254.509-.333.036-.236.508-.529.539-.299-.046-.04.365-.344.135.036.061.077.139-.154.035-.015-.152-.021-.154-.051v-.15l.082-.067h.18l.082.037.072.144.087-.013v-.013l.025.008.253-.039.035-.124.143.037v.133l-.133.093.02.146.459.142v.006l.106-.009.007-.199-.363-.165-.022-.096.303-.104.014-.288-.317-.192-.02-.487-.433.212h-.158l.042-.37-.589-.139-.243.184v.561l-.438.139-.177.367-.189.031v-.468l-.412-.057-.205-.134-.083-.303.735-.432.361-.109.036.242.2-.011.016-.121.21-.03.004-.043-.091-.037-.02-.129.259-.021.155-.162.009-.012h.002l.047-.049.543-.068.239.204-.629.335.8.188.104-.268h.351l.124-.233-.248-.062V5.3l-.775-.344-.535.062-.303.158.021.385-.316-.048-.049-.213.302-.275-.549-.027-.158.047-.068.185.206.035-.041.206-.35.021-.054.137-.508.014s-.014-.288-.035-.288l.398-.007.302-.295-.165-.083-.219.213-.365-.021-.219-.302h-.467l-.487.364h.446l.041.131-.116.107.495.014.074.178-.556-.02-.026-.137-.35-.076-.186-.103-.417.003A8.22 8.22 0 0 1 12 3.74c2.089 0 3.997.78 5.452 2.063l-.098.176-.381.149-.16.174.037.203.196.027.118.296.34-.136.055.396h-.102l-.277-.041-.309.053-.299.422-.427.067-.063.365.181.043-.053.235-.424-.086-.39.086-.082.217.067.454.228.107.384-.003.259-.022.078-.207.404-.525.268.054.262-.237.049.185.644.436-.077.106-.291-.016.111.159.18.039.209-.088-.005-.251.092-.047-.074-.079-.43-.24-.112-.319h.357l.114.113.309.265.014.321.318.34.119-.465.221-.121.042.381.216.237.43-.008c.084.214.158.433.225.655l-.047.042zM7.909 7.089l.216-.103.196.047-.068.262-.211.067-.133-.273zm1.147.618v.17h-.493l-.185-.052.045-.119.238-.098h.324v.098h.071zm.228.237v.165l-.124.079-.154.029v-.273h.278zm-.139-.067v-.196l.17.155-.17.041zm.077.396v.161l-.118.118h-.263l.041-.18.125-.011.025-.063.19-.025zm-.655-.329h.273l-.35.489-.143-.078.031-.206.189-.205zm1.118.273v.16h-.262l-.072-.104v-.149h.021l.313.093zm-.243-.22l.075-.08.126.08-.101.083-.1-.083zm10.57 2.135l.026-.03.031.141-.057-.111z"></path><path d="M4.399 8.51v.258c.09-.21.189-.415.297-.616l-.297.358z"></path></g></svg><svg width="26" height="26" viewBox="-1 -1 26 26" id="flag-en-b" y="550"><circle cx="12" cy="12" r="10" fill="#fff"></circle><circle cx="12" cy="12" r="8.5" fill="#cdcdcd"></circle><g fill="#454545"><path d="M16.116 7.003l.018.134-.2.042-.027.284h.24l.319-.03.164-.197-.174-.067-.096-.11-.144-.234-.069-.33-.272.056-.075.116v.131l.131.089z"></path><path d="M15.886 7.113l.013-.178-.158-.069-.222.051-.165.265v.172h.192zm-4.573.758l-.049.126h-.236v.122h.056l.008.06.146-.012.091-.056.023-.113.117-.01.047-.095-.107-.022h-.096zm-.609.222l-.009.119.171-.014.018-.12-.103-.081z"></path><path d="M20.998 11.907a8.826 8.826 0 0 0-.635-3.233l-.068-.172a9.003 9.003 0 0 0-1.829-2.755A8.978 8.978 0 0 0 12 3a8.961 8.961 0 0 0-6.093 2.384 8.91 8.91 0 0 0-1.029 1.124A8.948 8.948 0 0 0 3 12c0 4.963 4.038 9 9 9 3.491 0 6.522-2 8.013-4.911A8.971 8.971 0 0 0 21 12l-.002-.093zm-1.694-3.596l.053-.059c.068.133.133.268.193.404l-.085-.003-.161.022v-.364zm-1.301-1.572l.002-.401a8.2 8.2 0 0 1 .408.464l-.163.24-.566-.004-.036-.118.355-.181zM7.147 5.74v-.014h.18l.016-.063h.295v.128l-.084.114h-.408l.001-.165zm.288.402s.181-.031.195-.031c.016 0 0 .179 0 .179l-.406.027-.077-.092.288-.083zm12.443 3.573h-.659l-.401-.299-.422.041v.258h-.134l-.145-.103-.731-.185v-.474l-.927.072-.288.154h-.367l-.18-.018-.447.248v.466l-.914.66.076.281h.186l-.049.267-.13.048-.007.7.789.9h.344l.021-.056h.617l.179-.165h.35l.192.193.522.054-.07.694.58 1.023-.306.582.021.275.24.24v.66l.316.425v.549h.271a8.25 8.25 0 0 1-6.407 3.054c-4.552 0-8.257-3.705-8.257-8.26 0-1.146.234-2.239.658-3.232V8.51l.296-.358c.103-.194.212-.383.329-.566l.014.149-.342.416c-.107.2-.207.405-.297.616v.47l.344.165v.654l.329.562.268.041.034-.192-.315-.488-.062-.473h.186l.078.487.455.666-.117.214.291.445.721.178v-.116l.287.041-.028.206.227.041.351.096.494.563.632.047.061.516-.432.301-.02.46-.063.281.625.783.046.268s.227.062.255.062.509.364.509.364v1.414l.17.048-.115.65.287.385-.053.646.381.67.489.427.491.01.049-.159-.361-.304.021-.151.065-.185.013-.189-.245-.007-.123-.154.203-.195.027-.148-.227-.064.014-.138.323-.049.491-.235.164-.302.516-.659-.117-.515.158-.274.473.015.318-.252.104-.994.354-.45.063-.289-.323-.103-.213-.349-.728-.009-.576-.22-.027-.411-.193-.336-.521-.008-.301-.473-.268-.131-.014.145-.487.029-.179-.249-.508-.103-.42.484-.659-.111-.047-.743-.482-.083.193-.364-.055-.209-.632.422-.397-.048-.142-.311.088-.32.219-.404.504-.255.974-.001-.002.298.35.162-.028-.508.252-.254.509-.333.036-.236.508-.529.539-.299-.046-.04.365-.344.135.036.061.077.139-.154.035-.015-.152-.021-.154-.051v-.15l.082-.067h.18l.082.037.072.144.087-.013v-.013l.025.008.253-.039.035-.124.143.037v.133l-.133.093.02.146.459.142v.006l.106-.009.007-.199-.363-.165-.022-.096.303-.104.014-.288-.317-.192-.02-.487-.433.212h-.158l.042-.37-.589-.139-.243.184v.561l-.438.139-.177.367-.189.031v-.468l-.412-.057-.205-.134-.083-.303.735-.432.361-.109.036.242.2-.011.016-.121.21-.03.004-.043-.091-.037-.02-.129.259-.021.155-.162.009-.012h.002l.047-.049.543-.068.239.204-.629.335.8.188.104-.268h.351l.124-.233-.248-.062V5.3l-.775-.344-.535.062-.303.158.021.385-.316-.048-.049-.213.302-.275-.549-.027-.158.047-.068.185.206.035-.041.206-.35.021-.054.137-.508.014s-.014-.288-.035-.288l.398-.007.302-.295-.165-.083-.219.213-.365-.021-.219-.302h-.467l-.487.364h.446l.041.131-.116.107.495.014.074.178-.556-.02-.026-.137-.35-.076-.186-.103-.417.003A8.22 8.22 0 0 1 12 3.74c2.089 0 3.997.78 5.452 2.063l-.098.176-.381.149-.16.174.037.203.196.027.118.296.34-.136.055.396h-.102l-.277-.041-.309.053-.299.422-.427.067-.063.365.181.043-.053.235-.424-.086-.39.086-.082.217.067.454.228.107.384-.003.259-.022.078-.207.404-.525.268.054.262-.237.049.185.644.436-.077.106-.291-.016.111.159.18.039.209-.088-.005-.251.092-.047-.074-.079-.43-.24-.112-.319h.357l.114.113.309.265.014.321.318.34.119-.465.221-.121.042.381.216.237.43-.008c.084.214.158.433.225.655l-.047.042zM7.909 7.089l.216-.103.196.047-.068.262-.211.067-.133-.273zm1.147.618v.17h-.493l-.185-.052.045-.119.238-.098h.324v.098h.071zm.228.237v.165l-.124.079-.154.029v-.273h.278zm-.139-.067v-.196l.17.155-.17.041zm.077.396v.161l-.118.118h-.263l.041-.18.125-.011.025-.063.19-.025zm-.655-.329h.273l-.35.489-.143-.078.031-.206.189-.205zm1.118.273v.16h-.262l-.072-.104v-.149h.021l.313.093zm-.243-.22l.075-.08.126.08-.101.083-.1-.083zm10.57 2.135l.026-.03.031.141-.057-.111z"></path><path d="M4.399 8.51v.258c.09-.21.189-.415.297-.616l-.297.358z"></path></g></svg><svg width="26" height="26" viewBox="-1 -1 26 26" id="flag-es-a" y="576"><path fill="#ffc400" d="M3 6h18v12H3z"></path><path fill="#c60b1e" d="M3 6h18v3H3zm0 9h18v3H3z"></path><path d="M21 6v12H3V6h18m1-1H2v14h20V5z" fill="#fff"></path></svg><svg width="26" height="26" viewBox="-1 -1 26 26" id="flag-es-b" y="602"><path fill="silver" d="M3 6h18v12H3z"></path><path fill="#454545" d="M3 6h18v3H3zm0 9h18v3H3z"></path><path d="M21 6v12H3V6h18m1-1H2v14h20V5z" fill="#eee"></path><path d="M21 6v12H3V6h18m1-1H2v14h20V5z" fill="#fff"></path></svg><svg width="26" height="26" viewBox="-1 -1 26 26" id="flag-mx-a" y="628"><path fill="#fff" d="M3 6h18v12H3z"></path><path fill="#006847" d="M3 6h6v12H3z"></path><path fill="#ce1126" d="M15 6h6v12h-6z"></path><circle cx="12" cy="12" r="2" fill="#c0c2a3"></circle><path d="M21 6v12H3V6h18m1-1H2v14h20V5z" fill="#fff"></path></svg><svg width="26" height="26" viewBox="-1 -1 26 26" id="flag-mx-b" y="654"><path fill="#fff" d="M3 6h18v12H3z"></path><path fill="#454545" d="M3 6h6v12H3z"></path><path fill="#4c4c4c" d="M15 6h6v12h-6z"></path><circle cx="12" cy="12" r="2" fill="#bebebe"></circle><path d="M21 6v12H3V6h18m1-1H2v14h20V5z" fill="#fff"></path></svg><svg width="22" height="16" viewBox="-1 -1 22 16" id="flag-us-a" y="680"><g fill="none"><path fill="#FFF" d="M0 0h20v14H0z"></path><path fill="#FFF" d="M1 1h18v12H1z"></path><path fill="#B22234" d="M1 1h18v1H1zm0 2h18v1H1zm0 1.8h18v1H1zm0 1.8h18v1H1zm0 1.9h18v1H1zm0 1.8h18v1H1zM1 12h18v1H1z"></path><path fill="#3C3B6E" d="M1 1h9.2v6.5H1z"></path><path fill="#FFF" d="M1.4 1.6l.3.1-.1.3.2-.2.2.2v-.3l.1-.1H2l-.1-.3-.1.3zm1.6 0l.2.1L3 2l.2-.2.2.2v-.3l.2-.1h-.3v-.3l-.2.3zm1.5 0l.2.1V2l.1-.2.3.2-.1-.3.2-.1h-.3v-.3l-.1.3zm1.5 0l.2.1V2l.2-.2.2.2-.1-.3.2-.1h-.3v-.3l-.1.3zm1.5 0l.3.1-.1.3.2-.2.2.2v-.3l.1-.1H8l-.1-.3-.1.3zm1.6 0l.2.1-.1.3.2-.2.2.2v-.3l.2-.1h-.3v-.3l-.2.3zm-6.9.6l.2.2v.2l.2-.1.2.1-.1-.2.2-.2h-.3V2l-.1.2zm1.5 0l.2.2v.2l.2-.1.2.1v-.2l.1-.2h-.2L4 2l-.1.2zm1.5 0l.3.2-.1.2.2-.1.2.1v-.2l.2-.2h-.3L5.6 2v.2zm1.6 0l.2.2v.2l.1-.1.2.1v-.2l.2-.2h-.3V2l-.2.2zm1.5 0l.2.2v.2l.2-.1.2.1-.1-.2.2-.2h-.3V2l-.1.2zm-6.9.6l.3.2-.1.3.2-.2.2.2V3l-.1-.3-.1.3zm1.6 0l.2.2-.1.3.2-.2.2.2V3l.2-.1h-.3v-.3l-.2.3zm1.5 0l.2.2v.3l.1-.2.3.2L5 3l.2-.1h-.3v-.3l-.1.3zm1.5 0l.2.2v.3l.2-.2.2.2-.1-.3.2-.1h-.3v-.3l-.1.3zm1.5 0l.3.2-.1.3.2-.2.2.2V3l.1-.1H8l-.1-.3-.1.3zm1.6 0l.2.2-.1.3.2-.2.2.2V3l.2-.1h-.3v-.3l-.2.3zm-6.9.7l.2.2v.2l.2-.2.2.2-.1-.2.2-.2h-.2l-.1-.3-.1.3zm1.5 0l.3.2-.1.2.2-.2.2.2v-.2l.1-.2h-.2L4 3.2v.3zm1.6 0l.2.2-.1.2.2-.2.2.2v-.2l.2-.2h-.3v-.3l-.2.3zm1.5 0l.2.2v.2l.1-.2.3.2-.1-.2.2-.2h-.3v-.3l-.1.3zm1.5 0l.2.2v.2l.2-.2.2.2-.1-.2.2-.2h-.2l-.1-.3-.1.3zM1.5 4l.2.2-.1.2.2-.1.2.1v-.2l.2-.2h-.3l-.2.2zM3 4l.2.2v.2l.1-.1.3.1-.1-.2.2-.2h-.3l-.1.2zm1.5 0l.2.2v.2l.2-.1.2.1-.1-.2.2-.2H5l-.1.2zM6 4l.3.2-.1.2.2-.1.2.1v-.2l.1-.2H6.4l-.1.2zm1.6 0l.2.2-.1.2.2-.1.2.1v-.2l.2-.2H8l-.2.2zm1.5 0l.2.2v.2l.1-.1.3.1-.1-.2.2-.2h-.3l-.1.2zM1.5 5.4l.2.2-.1.2.2-.1.2.1v-.2l.2-.2h-.3v-.3l-.2.3zm1.5 0l.2.2v.2l.2-.1.2.1-.1-.2.2-.2h-.3v-.3l-.1.3zm1.5 0l.2.2v.2l.2-.1.2.1v-.2l.1-.2H5l-.1-.3-.1.3zm1.5 0l.3.2-.1.2.2-.1.2.1v-.2l.2-.2h-.3l-.1-.3v.3zm1.6 0l.2.2v.2l.1-.1.2.1v-.2l.2-.2H8v-.3l-.2.3zm1.5 0l.2.2v.2l.2-.1.2.1-.1-.2.2-.2h-.3v-.3l-.1.3zM1.5 6.7l.2.1-.1.3.2-.2.2.2v-.3l.2-.1h-.3v-.3l-.2.3zm1.5 0l.2.1v.3l.1-.2.3.2-.1-.3.2-.1h-.3v-.3l-.2.3zm1.5 0l.2.1v.3l.2-.2.2.2-.1-.3.2-.1H5v-.3l-.1.3zm1.5 0l.2.1v.3l.2-.2.2.2v-.3l.1-.1h-.2l-.1-.3-.1.3zm1.6 0l.2.1-.1.3.2-.2.2.2v-.3l.2-.1H8v-.3l-.2.3zm1.5 0l.2.1v.3l.1-.2.3.2-.1-.3.2-.1h-.3v-.3l-.2.3zm-6.9-2l.2.2v.3l.2-.2.2.2v-.3l.1-.1h-.2l-.1-.3-.1.3zm1.5 0L4 5l-.1.3L4 5l.2.2v-.3l.2-.1h-.3L4 4.5v.3zm1.6 0l.2.2-.1.3.2-.2.2.2v-.3l.2-.1h-.3v-.3l-.2.3zm1.5 0L7 5v.3V5l.3.2-.1-.3.2-.1h-.3v-.3l-.1.3zm1.5 0l.2.2v.3l.2-.2.2.2v-.3l.1-.1h-.2l-.1-.3-.1.3zM2.3 6l.1.2v.2l.2-.1.2.2-.1-.3.2-.2h-.2l-.1-.2-.1.2zm1.4 0l.3.2-.1.2.2-.1.2.2v-.3l.1-.2h-.2L4 5.8V6zm1.6 0l.2.2-.1.2.2-.1.2.2v-.3L6 6h-.3v-.2l-.2.2zm1.5 0l.2.2v.2l.1-.1.3.2-.1-.3.2-.2h-.3v-.2L7 6zm1.5 0l.2.2v.2l.2-.1.2.2-.1-.3L9 6h-.2l-.1-.2-.1.2z"></path></g></svg><svg width="22" height="16" viewBox="-1 -1 22 16" id="flag-us-b" y="696"><g fill="none"><path fill="#FFF" d="M0 0h20v14H0z"></path><path fill="#FFF" d="M1 1h18v12H1z"></path><path fill="#B22234" d="M1 1h18v1H1zm0 2h18v1H1zm0 1.8h18v1H1zm0 1.8h18v1H1zm0 1.9h18v1H1zm0 1.8h18v1H1zM1 12h18v1H1z"></path><path fill="#3C3B6E" d="M1 1h9.2v6.5H1z"></path><path fill="#FFF" d="M1.4 1.6l.3.1-.1.3.2-.2.2.2v-.3l.1-.1H2l-.1-.3-.1.3zm1.6 0l.2.1L3 2l.2-.2.2.2v-.3l.2-.1h-.3v-.3l-.2.3zm1.5 0l.2.1V2l.1-.2.3.2-.1-.3.2-.1h-.3v-.3l-.1.3zm1.5 0l.2.1V2l.2-.2.2.2-.1-.3.2-.1h-.3v-.3l-.1.3zm1.5 0l.3.1-.1.3.2-.2.2.2v-.3l.1-.1H8l-.1-.3-.1.3zm1.6 0l.2.1-.1.3.2-.2.2.2v-.3l.2-.1h-.3v-.3l-.2.3zm-6.9.6l.2.2v.2l.2-.1.2.1-.1-.2.2-.2h-.3V2l-.1.2zm1.5 0l.2.2v.2l.2-.1.2.1v-.2l.1-.2h-.2L4 2l-.1.2zm1.5 0l.3.2-.1.2.2-.1.2.1v-.2l.2-.2h-.3L5.6 2v.2zm1.6 0l.2.2v.2l.1-.1.2.1v-.2l.2-.2h-.3V2l-.2.2zm1.5 0l.2.2v.2l.2-.1.2.1-.1-.2.2-.2h-.3V2l-.1.2zm-6.9.6l.3.2-.1.3.2-.2.2.2V3l-.1-.3-.1.3zm1.6 0l.2.2-.1.3.2-.2.2.2V3l.2-.1h-.3v-.3l-.2.3zm1.5 0l.2.2v.3l.1-.2.3.2L5 3l.2-.1h-.3v-.3l-.1.3zm1.5 0l.2.2v.3l.2-.2.2.2-.1-.3.2-.1h-.3v-.3l-.1.3zm1.5 0l.3.2-.1.3.2-.2.2.2V3l.1-.1H8l-.1-.3-.1.3zm1.6 0l.2.2-.1.3.2-.2.2.2V3l.2-.1h-.3v-.3l-.2.3zm-6.9.7l.2.2v.2l.2-.2.2.2-.1-.2.2-.2h-.2l-.1-.3-.1.3zm1.5 0l.3.2-.1.2.2-.2.2.2v-.2l.1-.2h-.2L4 3.2v.3zm1.6 0l.2.2-.1.2.2-.2.2.2v-.2l.2-.2h-.3v-.3l-.2.3zm1.5 0l.2.2v.2l.1-.2.3.2-.1-.2.2-.2h-.3v-.3l-.1.3zm1.5 0l.2.2v.2l.2-.2.2.2-.1-.2.2-.2h-.2l-.1-.3-.1.3zM1.5 4l.2.2-.1.2.2-.1.2.1v-.2l.2-.2h-.3l-.2.2zM3 4l.2.2v.2l.1-.1.3.1-.1-.2.2-.2h-.3l-.1.2zm1.5 0l.2.2v.2l.2-.1.2.1-.1-.2.2-.2H5l-.1.2zM6 4l.3.2-.1.2.2-.1.2.1v-.2l.1-.2H6.4l-.1.2zm1.6 0l.2.2-.1.2.2-.1.2.1v-.2l.2-.2H8l-.2.2zm1.5 0l.2.2v.2l.1-.1.3.1-.1-.2.2-.2h-.3l-.1.2zM1.5 5.4l.2.2-.1.2.2-.1.2.1v-.2l.2-.2h-.3v-.3l-.2.3zm1.5 0l.2.2v.2l.2-.1.2.1-.1-.2.2-.2h-.3v-.3l-.1.3zm1.5 0l.2.2v.2l.2-.1.2.1v-.2l.1-.2H5l-.1-.3-.1.3zm1.5 0l.3.2-.1.2.2-.1.2.1v-.2l.2-.2h-.3l-.1-.3v.3zm1.6 0l.2.2v.2l.1-.1.2.1v-.2l.2-.2H8v-.3l-.2.3zm1.5 0l.2.2v.2l.2-.1.2.1-.1-.2.2-.2h-.3v-.3l-.1.3zM1.5 6.7l.2.1-.1.3.2-.2.2.2v-.3l.2-.1h-.3v-.3l-.2.3zm1.5 0l.2.1v.3l.1-.2.3.2-.1-.3.2-.1h-.3v-.3l-.2.3zm1.5 0l.2.1v.3l.2-.2.2.2-.1-.3.2-.1H5v-.3l-.1.3zm1.5 0l.2.1v.3l.2-.2.2.2v-.3l.1-.1h-.2l-.1-.3-.1.3zm1.6 0l.2.1-.1.3.2-.2.2.2v-.3l.2-.1H8v-.3l-.2.3zm1.5 0l.2.1v.3l.1-.2.3.2-.1-.3.2-.1h-.3v-.3l-.2.3zm-6.9-2l.2.2v.3l.2-.2.2.2v-.3l.1-.1h-.2l-.1-.3-.1.3zm1.5 0L4 5l-.1.3L4 5l.2.2v-.3l.2-.1h-.3L4 4.5v.3zm1.6 0l.2.2-.1.3.2-.2.2.2v-.3l.2-.1h-.3v-.3l-.2.3zm1.5 0L7 5v.3V5l.3.2-.1-.3.2-.1h-.3v-.3l-.1.3zm1.5 0l.2.2v.3l.2-.2.2.2v-.3l.1-.1h-.2l-.1-.3-.1.3zM2.3 6l.1.2v.2l.2-.1.2.2-.1-.3.2-.2h-.2l-.1-.2-.1.2zm1.4 0l.3.2-.1.2.2-.1.2.2v-.3l.1-.2h-.2L4 5.8V6zm1.6 0l.2.2-.1.2.2-.1.2.2v-.3L6 6h-.3v-.2l-.2.2zm1.5 0l.2.2v.2l.1-.1.3.2-.1-.3.2-.2h-.3v-.2L7 6zm1.5 0l.2.2v.2l.2-.1.2.2-.1-.3L9 6h-.2l-.1-.2-.1.2z"></path></g></svg><svg id="forward-8x16" width="10" height="18" viewBox="-1 -1 10 18" y="712"><title>2810D239-6BD0-4327-BE65-796B206553A6</title><path fill="#FFF" d="M7.923 7.797l-.355-.385L.825.084A.25.25 0 0 0 .472.063L.451.084.077.489a.307.307 0 0 0 0 .407L6.616 8 .078 15.105a.303.303 0 0 0 0 .404l.373.407c.103.11.27.11.374 0l7.098-7.714a.306.306 0 0 0 0-.405"></path></svg><svg width="36" height="36" viewBox="-1 -1 36 36" id="highlight-a" y="730"><linearGradient id="a" gradientUnits="userSpaceOnUse" x1="14.124" y1="8.643" x2="21.436" y2="31.064"><stop offset="0" stop-color="#8f0000"></stop><stop offset="1" stop-color="#af0000"></stop></linearGradient><path fill="url(#a)" d="M14.356 2h-2.478l-.423 2.229L9.226 2H6.76l-.977 5.143H1.939v2.601l2.823 2.822-.229 1.215H1v2.565l2.574 2.573-.453 2.415L15.792 34H34V21.644z"></path><path fill="#C00" d="M10.258 15.932H6.376L5.424 21H4.201l.952-5.068H2v-1.15h3.363L6.389 9.33h-3.45V8.143h3.672L7.588 3h1.224l-.977 5.143h3.894L12.706 3h1.236l-.977 5.143h2.831V9.33h-3.053l-1.026 5.452h3.152v1.15h-3.375L10.542 21H9.306l.952-5.068zm-3.672-1.151h3.894l1.026-5.452H7.613l-1.027 5.452z"></path></svg><svg width="36" height="36" viewBox="-1 -1 36 36" id="highlight-b" y="766"><linearGradient id="a" gradientUnits="userSpaceOnUse" x1="14.124" y1="8.643" x2="21.436" y2="31.064"><stop offset="0" stop-color="#c3c3c3"></stop><stop offset="1" stop-color="#eee"></stop></linearGradient><path fill="url(#a)" d="M14.356 2h-2.478l-.423 2.229L9.226 2H6.76l-.977 5.143H1.939v2.601l2.823 2.822-.229 1.215H1v2.565l2.574 2.573-.453 2.415L15.792 34H34V21.644z"></path><path fill="#FFF" d="M10.258 15.932H6.376L5.424 21H4.201l.952-5.068H2v-1.15h3.363L6.389 9.33h-3.45V8.143h3.672L7.588 3h1.224l-.977 5.143h3.894L12.706 3h1.236l-.977 5.143h2.831V9.33h-3.053l-1.026 5.452h3.152v1.15h-3.375L10.542 21H9.306l.952-5.068zm-3.672-1.151h3.894l1.026-5.452H7.613l-1.027 5.452z"></path></svg><svg width="36" height="36" viewBox="-1 -1 36 36" id="highlight-c" y="802"><path fill="#FFF" d="M10.258 15.932H6.376L5.424 21H4.201l.952-5.068H2v-1.15h3.363L6.389 9.33h-3.45V8.143h3.672L7.588 3h1.224l-.977 5.143h3.894L12.706 3h1.236l-.977 5.143h2.831V9.33h-3.053l-1.026 5.452h3.152v1.15h-3.375L10.542 21H9.306l.952-5.068zm-3.672-1.151h3.894l1.026-5.452H7.613l-1.027 5.452z"></path><linearGradient id="a" gradientUnits="userSpaceOnUse" x1="-449.34" y1="280.14" x2="-448.919" y2="278.849" gradientTransform="matrix(16.4706 0 0 -16.4706 7414.148 4620)"><stop offset=".003" stop-opacity=".2"></stop><stop offset="1" stop-opacity="0"></stop></linearGradient><path fill="url(#a)" d="M14.4 2h-2.5l-.4 2.2L9.199 2H6.801l-1 5.1H1.899v2.6l2.902 2.9-.301 1.2H1v2.499L3.6 18.9l-.5 2.401L15.801 34H34V21.602z"></path><path fill="#D6DBDF" d="M10.301 15.9H6.399l-1 5.1h-1.2l1-5.1H2v-1.2h3.399l1-5.5h-3.5V8.1h3.7L7.6 3h1.201l-1 5.101h3.898l1-5.101H13.9l-1 5.101h2.799V9.3h-3.1l-1 5.501H14.8V16h-3.4l-1 5.102H9.3l1.001-5.202zM6.6 14.8h3.9l1-5.501H7.6l-1 5.501z"></path></svg><svg width="18" height="17.999000000000002" viewBox="-1 -1 18 17.999000000000002" id="info-orange" y="838"><circle fill="#F47F25" cx="8" cy="8" r="8"></circle><g fill="#FFF"><path d="M6.993 6.655v4.964h-.958v1.021h4.042v-1.021H9.055V5.64h-3.02v1.021zM7.055 4.624h2V2.608h-2"></path></g></svg><svg width="34" height="34" viewBox="-1 -1 34 34" id="left-b" y="856"><path opacity=".2" fill="none" d="M0 0h32v32H0z"></path><path fill="none" d="M0 0h32v32H0z"></path><g fill="#FFF"><path d="M16.292 23.707L8.586 16l7.706-7.707 1.415 1.414L11.414 16l6.293 6.293z"></path><path d="M11 15h13v2H11z"></path></g></svg><svg id="left-c" width="34" height="34" viewBox="-1 -1 34 34" y="890"><path fill="none" d="M0 0h32v32H0V0z"></path><path fill="none" d="M0 0h32v32H0V0z"></path><path d="M16.292 23.707L8.586 16l7.706-7.707 1.415 1.414L11.414 16l6.293 6.293-1.415 1.414z"></path><path d="M11 15h13v2H11v-2z"></path></svg><svg width="40" height="50" viewBox="-1 -1 40 50" id="left-lives-b" y="924"><path fill="#FFF" d="M15.288 24.177l.336.337 6.38 6.38c.1.1.256.1.354 0l.354-.353a.25.25 0 0 0 0-.353L16.525 24l6.186-6.188c.1-.097.1-.255.002-.354l-.353-.354a.253.253 0 0 0-.355 0l-6.717 6.72a.25.25 0 0 0 0 .353z"></path><path fill="none" d="M0 0h38v48H0z"></path></svg><svg width="139.206" height="40" viewBox="-1 -1 139.206 40" id="logo-marca" y="974"><path fill="#C00" d="M21.582.048H33.59V8.31h-2.073v21.38h2.073V38H20.722v-8.31H22.8V16.316l-5.979 16.366-5.826-16.366V29.69h2.074V38H.049v-8.31h2.078V8.311H0V.048h12.463l4.558 12.823L21.582.048zM59.433 29.69h1.52V38H49.096v-8.31h1.571v-3.144h-5.472l-.052 3.144h1.521V38H34.857v-8.31h1.521L41.14 0h13.529l4.764 29.69zm-9.629-8.158l-1.926-11.75-1.823 11.75h3.749zm35.825 8.11h2.076V38H76.406V22.853h-2.737v6.789h1.472V38H62.318v-8.358h2.029V8.261h-2.029V.048h19.408l3.902 4.004v11.86l-3.194 3.191 3.194 3.191v7.348zM76.406 8.261h-2.787v8.662h2.787V8.261zM105.895.048l3.952 4.004V15.76h-9.171V8.414l-2.786-.056V29.69h2.786v-7.396h9.171v11.653L105.895 38H92.77l-3.85-4.052V4.052L92.77.048h13.125zm31.311 29.642V38h-11.803v-8.31h1.517v-3.144h-5.469l-.053 3.144h1.521V38h-11.756v-8.31h1.47L117.396 0h13.528l4.763 29.69h1.519zm-11.144-8.158l-1.927-11.75-1.824 11.75h3.751z"></path></svg><svg width="139.206" height="40" viewBox="-1 -1 139.206 40" id="logo-marca-black" y="1014"><path d="M21.582.048H33.59V8.31h-2.073v21.38h2.073V38H20.722v-8.31H22.8V16.316l-5.979 16.366-5.826-16.366V29.69h2.074V38H.049v-8.31h2.078V8.311H0V.048h12.463l4.558 12.823L21.582.048zM59.433 29.69h1.52V38H49.096v-8.31h1.571v-3.144h-5.472l-.052 3.144h1.521V38H34.857v-8.31h1.521L41.14 0h13.529l4.764 29.69zm-9.629-8.158l-1.926-11.75-1.823 11.75h3.749zm35.825 8.11h2.076V38H76.406V22.853h-2.737v6.789h1.472V38H62.318v-8.358h2.029V8.261h-2.029V.048h19.408l3.902 4.004v11.86l-3.194 3.191 3.194 3.191v7.348zM76.406 8.261h-2.787v8.662h2.787V8.261zM105.895.048l3.952 4.004V15.76h-9.171V8.414l-2.786-.056V29.69h2.786v-7.396h9.171v11.653L105.895 38H92.77l-3.85-4.052V4.052L92.77.048h13.125zm31.311 29.642V38h-11.803v-8.31h1.517v-3.144h-5.469l-.053 3.144h1.521V38h-11.756v-8.31h1.47L117.396 0h13.528l4.763 29.69h1.519zm-11.144-8.158l-1.927-11.75-1.824 11.75h3.751z"></path></svg><svg width="219.592" height="40" viewBox="-1 -1 219.592 40" id="logo-marca-claro" y="1054"><path d="M13.035 33.838L8.52 21.076V31.5h1.615V38H.027v-6.5h1.626V14.84H0V8.375l9.644-.012 3.544 10.046 3.587-10.046 9.457.012v6.465h-1.618V31.5h1.618V38h-10.11v-6.5h1.625V21.076l-4.712 12.762zM42.686 8.365L46.438 31.5h1.186v6.487H38.31V31.5h1.195l-.002-2.43h-4.319l-.002 2.43h1.193v6.487h-9.309V31.5h1.185L32.01 8.365h10.676zM38.812 25.15l-1.487-9.166-1.453 9.166h2.94zm39.815-10.292v5.779h6.729v-9.12l-3.131-3.152h-9.847l-3.133 3.145v23.343l3.133 3.135h9.856l3.131-3.135.005-9.109h-6.745l-.003 5.775h-2.218V14.858h2.223zm-19.09 23.128v-11.76l-2.172-.002-.003 5.276h1.18v6.487H48.461V31.5h1.621V14.84h-1.627V8.365H63.68l3.121 3.123v9.347l-2.524 2.498 2.512 2.491v5.683h1.622v6.479h-8.874zM57.339 14.84v6.815l2.206.003v-6.812l-2.206-.006zm44.485-6.475l3.75 23.135h1.188v6.487h-9.314V31.5h1.194v-2.43h-4.317l-.005 2.43h1.191v6.487h-9.31V31.5h1.189l3.759-23.135h10.675zM97.95 25.15l-1.486-9.166-1.452 9.166h2.938zm100.385-5.151c-2.059-2.062-4.547-3.069-7.376-3.069-2.825 0-5.268 1.007-7.282 3.069-2.059 2.064-3.063 4.557-3.063 7.433 0 2.878 1.005 5.373 3.063 7.387 2.015 2.062 4.457 3.117 7.282 3.117 2.829 0 5.317-1.055 7.376-3.117 2.014-2.014 3.02-4.509 3.02-7.387 0-2.876-1.006-5.37-3.02-7.433zm-3.496 11.319c-1.051 1.103-2.346 1.629-3.88 1.629-1.483 0-2.778-.526-3.831-1.629-1.055-1.104-1.629-2.4-1.629-3.887 0-1.581.574-2.876 1.629-3.932 1.053-1.104 2.348-1.631 3.831-1.584 1.534-.047 2.829.48 3.929 1.584 1.006 1.056 1.533 2.351 1.578 3.932-.045 1.487-.572 2.784-1.627 3.887zm-69.451-19.52c2.873-.048 5.508.862 7.806 2.685 2.252 1.774 3.737 4.077 4.503 6.857h-5.221c-.668-1.342-1.629-2.493-2.825-3.309-1.341-.863-2.729-1.293-4.263-1.293-2.203 0-4.074.815-5.605 2.348-1.578 1.584-2.346 3.454-2.297 5.661-.049 2.204.719 4.074 2.297 5.657 1.531 1.535 3.402 2.35 5.605 2.35 1.533 0 2.922-.431 4.263-1.246a8.96 8.96 0 0 0 2.825-3.31h5.221c-.766 2.783-2.251 5.036-4.503 6.859-2.298 1.773-4.933 2.635-7.806 2.635-3.592 0-6.562-1.245-9.051-3.739-2.539-2.542-3.784-5.659-3.784-9.206 0-3.598 1.245-6.619 3.784-9.162 2.489-2.589 5.459-3.835 9.051-3.787zM157 16.882c-3.352-.049-5.699.864-7.04 2.638-.86 1.103-1.292 2.543-1.438 4.363h4.984c.094-.862.383-1.438.719-1.82.526-.674 1.387-1.009 2.631-.961 1.057-.048 1.872.146 2.445.48.574.287.814.862.86 1.678 0 .67-.382 1.2-1.147 1.534l-3.832.622c-1.771.241-3.207.674-4.311 1.297-1.869 1.104-2.779 2.878-2.73 5.42-.049 1.773.527 3.213 1.676 4.27 1.004.861 2.396 1.34 4.072 1.389 2.729-.049 4.882-.719 6.417-2.061v2.061h4.98V23.115c0-2.396-.862-4.075-2.491-4.939-1.723-.911-3.639-1.343-5.795-1.294zm2.108 11.268l.957-.527v2.015c0 1.728-.478 2.927-1.388 3.598-.961.671-1.963 1.006-3.114 1.006-.716 0-1.292-.191-1.772-.575-.479-.431-.719-1.053-.719-1.966 0-1.007.385-1.727 1.199-2.253.479-.289 1.292-.529 2.346-.672l2.491-.626zm-13.89-16.352v25.993h-4.981V11.798h4.981zm31.707 5.802l1.916-.526 1.293-.095.049 5.084-1.534-.098c-.957 0-1.868.288-2.728.863-.768.527-1.391 1.15-1.725 1.92-.432.717-.623 1.869-.623 3.5v9.543h-4.935v-19.95l4.744.048v2.541c1.005-1.39 2.205-2.301 3.543-2.83zm25.289 1.471l-3.16-3.166 12.022-12.037 3.163 3.167-12.025 12.036zm-9.8-6.169h-4.457V0h4.457v12.902zm12.005 12.532h13.173v4.46h-13.173v-4.46z" fill-rule="evenodd" clip-rule="evenodd" fill="#C00"></path></svg><svg width="219.592" height="40" viewBox="-1 -1 219.592 40" id="logo-marca-claro-black" y="1094"><path d="M13.035 33.838L8.52 21.076V31.5h1.615V38H.027v-6.5h1.626V14.84H0V8.375l9.644-.012 3.544 10.046 3.587-10.046 9.457.012v6.465h-1.618V31.5h1.618V38h-10.11v-6.5h1.625V21.076l-4.712 12.762zM42.686 8.365L46.438 31.5h1.186v6.487H38.31V31.5h1.195l-.002-2.43h-4.319l-.002 2.43h1.193v6.487h-9.309V31.5h1.185L32.01 8.365h10.676zM38.812 25.15l-1.487-9.166-1.453 9.166h2.94zm39.815-10.292v5.779h6.729v-9.12l-3.131-3.152h-9.847l-3.133 3.145v23.343l3.133 3.135h9.856l3.131-3.135.005-9.109h-6.745l-.003 5.775h-2.218V14.858h2.223zm-19.09 23.128v-11.76l-2.172-.002-.003 5.276h1.18v6.487H48.461V31.5h1.621V14.84h-1.627V8.365H63.68l3.121 3.123v9.347l-2.524 2.498 2.512 2.491v5.683h1.622v6.479h-8.874zM57.339 14.84v6.815l2.206.003v-6.812l-2.206-.006zm44.485-6.475l3.75 23.135h1.188v6.487h-9.314V31.5h1.194v-2.43h-4.317l-.005 2.43h1.191v6.487h-9.31V31.5h1.189l3.759-23.135h10.675zM97.95 25.15l-1.486-9.166-1.452 9.166h2.938zm100.385-5.151c-2.059-2.062-4.547-3.069-7.376-3.069-2.825 0-5.268 1.007-7.282 3.069-2.059 2.064-3.063 4.557-3.063 7.433 0 2.878 1.005 5.373 3.063 7.387 2.015 2.062 4.457 3.117 7.282 3.117 2.829 0 5.317-1.055 7.376-3.117 2.014-2.014 3.02-4.509 3.02-7.387 0-2.876-1.006-5.37-3.02-7.433zm-3.496 11.319c-1.051 1.103-2.346 1.629-3.88 1.629-1.483 0-2.778-.526-3.831-1.629-1.055-1.104-1.629-2.4-1.629-3.887 0-1.581.574-2.876 1.629-3.932 1.053-1.104 2.348-1.631 3.831-1.584 1.534-.047 2.829.48 3.929 1.584 1.006 1.056 1.533 2.351 1.578 3.932-.045 1.487-.572 2.784-1.627 3.887zm-69.451-19.52c2.873-.048 5.508.862 7.806 2.685 2.252 1.774 3.737 4.077 4.503 6.857h-5.221c-.668-1.342-1.629-2.493-2.825-3.309-1.341-.863-2.729-1.293-4.263-1.293-2.203 0-4.074.815-5.605 2.348-1.578 1.584-2.346 3.454-2.297 5.661-.049 2.204.719 4.074 2.297 5.657 1.531 1.535 3.402 2.35 5.605 2.35 1.533 0 2.922-.431 4.263-1.246a8.96 8.96 0 0 0 2.825-3.31h5.221c-.766 2.783-2.251 5.036-4.503 6.859-2.298 1.773-4.933 2.635-7.806 2.635-3.592 0-6.562-1.245-9.051-3.739-2.539-2.542-3.784-5.659-3.784-9.206 0-3.598 1.245-6.619 3.784-9.162 2.489-2.589 5.459-3.835 9.051-3.787zM157 16.882c-3.352-.049-5.699.864-7.04 2.638-.86 1.103-1.292 2.543-1.438 4.363h4.984c.094-.862.383-1.438.719-1.82.526-.674 1.387-1.009 2.631-.961 1.057-.048 1.872.146 2.445.48.574.287.814.862.86 1.678 0 .67-.382 1.2-1.147 1.534l-3.832.622c-1.771.241-3.207.674-4.311 1.297-1.869 1.104-2.779 2.878-2.73 5.42-.049 1.773.527 3.213 1.676 4.27 1.004.861 2.396 1.34 4.072 1.389 2.729-.049 4.882-.719 6.417-2.061v2.061h4.98V23.115c0-2.396-.862-4.075-2.491-4.939-1.723-.911-3.639-1.343-5.795-1.294zm2.108 11.268l.957-.527v2.015c0 1.728-.478 2.927-1.388 3.598-.961.671-1.963 1.006-3.114 1.006-.716 0-1.292-.191-1.772-.575-.479-.431-.719-1.053-.719-1.966 0-1.007.385-1.727 1.199-2.253.479-.289 1.292-.529 2.346-.672l2.491-.626zm-13.89-16.352v25.993h-4.981V11.798h4.981zm31.707 5.802l1.916-.526 1.293-.095.049 5.084-1.534-.098c-.957 0-1.868.288-2.728.863-.768.527-1.391 1.15-1.725 1.92-.432.717-.623 1.869-.623 3.5v9.543h-4.935v-19.95l4.744.048v2.541c1.005-1.39 2.205-2.301 3.543-2.83zm25.289 1.471l-3.16-3.166 12.022-12.037 3.163 3.167-12.025 12.036zm-9.8-6.169h-4.457V0h4.457v12.902zm12.005 12.532h13.173v4.46h-13.173v-4.46z" fill-rule="evenodd" clip-rule="evenodd"></path></svg><svg width="73.76" height="46" viewBox="-1 -1 73.76 46" id="logo-marca-claro-min-a" y="1134"><path fill="#C00" d="M64 44H0L7.76 0h64z"></path><path d="M25.79 29.911l-3.352-9.474v7.739h1.2V33h-7.503v-4.824h1.207V15.809h-1.228v-4.8L23.273 11l2.631 7.457L28.566 11l7.02.009v4.8h-1.201v12.367h1.201V33h-7.505v-4.824h1.208v-7.739l-3.499 9.474zm21.071-19.073c2.406-.041 4.613.737 6.537 2.296 1.887 1.517 3.131 3.484 3.771 5.862h-4.372c-.56-1.147-1.364-2.131-2.366-2.829-1.123-.737-2.287-1.106-3.57-1.106-1.844 0-3.412.697-4.693 2.009-1.322 1.353-1.966 2.952-1.924 4.838-.042 1.885.602 3.482 1.924 4.836 1.281 1.312 2.85 2.009 4.693 2.009 1.283 0 2.447-.368 3.57-1.065a7.62 7.62 0 0 0 2.366-2.83h4.372c-.641 2.379-1.885 4.307-3.771 5.864-1.924 1.517-4.131 2.253-6.537 2.253-3.008 0-5.496-1.064-7.58-3.197-2.126-2.172-3.168-4.837-3.168-7.869 0-3.076 1.042-5.658 3.168-7.831 2.084-2.216 4.573-3.281 7.58-3.24z" fill-rule="evenodd" clip-rule="evenodd" fill="#FFF"></path></svg><svg width="73.76" height="46" viewBox="-1 -1 73.76 46" id="logo-marca-claro-min-a-black" y="1180"><path fill="#C00" d="M64 44H0L7.76 0h64z"></path><path d="M25.79 29.911l-3.352-9.474v7.739h1.2V33h-7.503v-4.824h1.207V15.809h-1.228v-4.8L23.273 11l2.631 7.457L28.566 11l7.02.009v4.8h-1.201v12.367h1.201V33h-7.505v-4.824h1.208v-7.739l-3.499 9.474zm21.071-19.073c2.406-.041 4.613.737 6.537 2.296 1.887 1.517 3.131 3.484 3.771 5.862h-4.372c-.56-1.147-1.364-2.131-2.366-2.829-1.123-.737-2.287-1.106-3.57-1.106-1.844 0-3.412.697-4.693 2.009-1.322 1.353-1.966 2.952-1.924 4.838-.042 1.885.602 3.482 1.924 4.836 1.281 1.312 2.85 2.009 4.693 2.009 1.283 0 2.447-.368 3.57-1.065a7.62 7.62 0 0 0 2.366-2.83h4.372c-.641 2.379-1.885 4.307-3.771 5.864-1.924 1.517-4.131 2.253-6.537 2.253-3.008 0-5.496-1.064-7.58-3.197-2.126-2.172-3.168-4.837-3.168-7.869 0-3.076 1.042-5.658 3.168-7.831 2.084-2.216 4.573-3.281 7.58-3.24z" fill-rule="evenodd" clip-rule="evenodd"></path></svg><svg width="73.76" height="46" viewBox="-1 -1 73.76 46" id="logo-marca-claro-min-b" y="1226"><path fill="#FFF" d="M64 44H0L7.76 0h64z"></path><path d="M25.791 29.912l-3.352-9.476v7.739h1.199V33h-7.503v-4.825h1.207V15.809h-1.227v-4.8L23.274 11l2.631 7.457L28.567 11l7.02.009v4.8h-1.201v12.366h1.201V33h-7.505v-4.825h1.208v-7.739l-3.499 9.476zm21.072-19.075c2.405-.041 4.611.738 6.537 2.296 1.886 1.516 3.129 3.484 3.77 5.861h-4.371c-.56-1.147-1.364-2.131-2.366-2.829-1.123-.737-2.286-1.105-3.569-1.105-1.846 0-3.412.697-4.694 2.008-1.321 1.353-1.966 2.951-1.925 4.838-.041 1.884.604 3.483 1.925 4.835 1.282 1.313 2.849 2.01 4.694 2.01 1.283 0 2.446-.367 3.569-1.064a7.624 7.624 0 0 0 2.366-2.831h4.371c-.641 2.38-1.884 4.306-3.77 5.864-1.926 1.518-4.132 2.252-6.537 2.252-3.009 0-5.497-1.064-7.581-3.195-2.126-2.174-3.168-4.838-3.168-7.87 0-3.076 1.042-5.658 3.168-7.831 2.084-2.214 4.572-3.279 7.581-3.239z" fill-rule="evenodd" clip-rule="evenodd" fill="#C00"></path></svg><svg width="73.76" height="46" viewBox="-1 -1 73.76 46" id="logo-marca-claro-min-b-black" y="1272"><path fill="#FFF" d="M64 44H0L7.76 0h64z"></path><path d="M25.791 29.912l-3.352-9.476v7.739h1.199V33h-7.503v-4.825h1.207V15.809h-1.227v-4.8L23.274 11l2.631 7.457L28.567 11l7.02.009v4.8h-1.201v12.366h1.201V33h-7.505v-4.825h1.208v-7.739l-3.499 9.476zm21.072-19.075c2.405-.041 4.611.738 6.537 2.296 1.886 1.516 3.129 3.484 3.77 5.861h-4.371c-.56-1.147-1.364-2.131-2.366-2.829-1.123-.737-2.286-1.105-3.569-1.105-1.846 0-3.412.697-4.694 2.008-1.321 1.353-1.966 2.951-1.925 4.838-.041 1.884.604 3.483 1.925 4.835 1.282 1.313 2.849 2.01 4.694 2.01 1.283 0 2.446-.367 3.569-1.064a7.624 7.624 0 0 0 2.366-2.831h4.371c-.641 2.38-1.884 4.306-3.77 5.864-1.926 1.518-4.132 2.252-6.537 2.252-3.009 0-5.497-1.064-7.581-3.195-2.126-2.174-3.168-4.838-3.168-7.87 0-3.076 1.042-5.658 3.168-7.831 2.084-2.214 4.572-3.279 7.581-3.239z" fill-rule="evenodd" clip-rule="evenodd"></path></svg><svg width="133.708" height="25" viewBox="-1 -1 133.708 25" id="logo-marca-claro-section" y="1318"><path d="M7.891 20.482l-2.733-7.724v6.308h.977V23H.017v-3.934H1V8.982H0V5.07l5.837-.009 2.146 6.082 2.172-6.082 5.723.009v3.912h-.979v10.084h.979V23H9.76v-3.934h.983v-6.308l-2.852 7.724zM25.838 5.061l2.272 14.006h.717v3.928h-5.638v-3.928h.724l-.002-1.469h-2.614l-.002 1.469h.724v3.928h-5.635v-3.928h.716l2.275-14.006h6.463zm-2.345 10.162l-.899-5.548-.88 5.548h1.779zm24.1-6.23v3.497h4.073V6.97l-1.895-1.909h-5.96l-1.896 1.904v14.133l1.896 1.896h5.966l1.895-1.896.004-5.516h-4.083l-.002 3.496H46.25V8.993h1.343zM36.039 22.991v-7.118h-1.315l-.001 3.193h.713v3.928h-6.101v-3.928h.98V8.982h-.984V5.061h9.214l1.889 1.893v5.656l-1.528 1.513 1.521 1.507v3.441h.982v3.921h-5.37v-.001zM34.708 8.982v4.124l1.336.003V8.986l-1.336-.004zm26.926-3.921l2.27 14.006h.719v3.928h-5.638v-3.928h.723v-1.469h-2.614l-.002 1.469h.721v3.928h-5.635v-3.928h.719l2.275-14.006h6.462zm-2.345 10.162l-.899-5.548-.88 5.548h1.779zm60.762-3.118c-1.244-1.251-2.752-1.859-4.464-1.859-1.71 0-3.188.608-4.407 1.859-1.247 1.25-1.854 2.76-1.854 4.498 0 1.744.607 3.253 1.854 4.472 1.22 1.247 2.697 1.886 4.407 1.886 1.712 0 3.22-.639 4.464-1.886 1.219-1.219 1.828-2.728 1.828-4.472 0-1.738-.609-3.248-1.828-4.498zm-2.115 6.851c-.637.666-1.42.988-2.349.988a3.095 3.095 0 0 1-2.319-.988c-.639-.669-.986-1.452-.986-2.353 0-.957.348-1.738.986-2.38.638-.669 1.42-.985 2.319-.956.929-.029 1.712.287 2.378.956.607.642.93 1.423.956 2.38a3.443 3.443 0 0 1-.985 2.353zM75.897 7.14c1.74-.028 3.334.523 4.725 1.626 1.363 1.075 2.262 2.469 2.727 4.151h-3.16c-.405-.812-.985-1.51-1.711-2.002-.811-.521-1.652-.785-2.58-.785-1.334 0-2.465.494-3.393 1.424-.955.956-1.42 2.091-1.391 3.427-.029 1.332.436 2.465 1.391 3.422.928.931 2.059 1.422 3.393 1.422.928 0 1.77-.26 2.58-.754a5.394 5.394 0 0 0 1.711-2.004h3.16c-.465 1.688-1.363 3.05-2.727 4.153-1.391 1.075-2.984 1.596-4.725 1.596-2.174 0-3.973-.754-5.479-2.263-1.536-1.539-2.29-3.426-2.29-5.572 0-2.179.754-4.007 2.29-5.546 1.506-1.568 3.305-2.324 5.479-2.295zm19.134 3.079c-2.028-.028-3.448.522-4.261 1.596-.521.668-.782 1.541-.87 2.641h3.017c.056-.521.23-.871.435-1.1.319-.412.84-.613 1.593-.584.639-.029 1.133.088 1.48.293.348.174.492.52.521 1.014 0 .406-.231.726-.694.93l-2.32.377c-1.072.145-1.941.405-2.608.784-1.132.667-1.682 1.741-1.653 3.282-.028 1.073.319 1.943 1.015 2.584.608.521 1.45.809 2.464.837 1.652-.028 2.955-.434 3.886-1.245v1.245h3.015v-8.88c0-1.452-.523-2.468-1.51-2.99-1.044-.554-2.205-.813-3.51-.784zm1.278 6.823l.577-.321v1.219c0 1.047-.29 1.771-.839 2.177-.582.408-1.188.609-1.885.609-.435 0-.781-.116-1.072-.347-.291-.263-.437-.64-.437-1.191 0-.608.233-1.043.728-1.363.289-.174.781-.32 1.418-.408l1.51-.375zM87.901 7.14v15.732h-3.016V7.14h3.016zm19.193 3.512l1.156-.318.785-.059.028 3.08-.929-.062c-.578 0-1.131.177-1.65.524-.464.316-.842.695-1.044 1.162-.261.432-.377 1.13-.377 2.114v5.777h-2.987V10.799l2.871.028v1.537c.609-.84 1.335-1.391 2.147-1.712zm15.307.892l-1.914-1.919 7.276-7.284 1.915 1.916-7.277 7.287zm-5.934-3.734h-2.697V0h2.697v7.81zm7.268 7.585h7.973v2.7h-7.973v-2.7z" fill-rule="evenodd" clip-rule="evenodd" fill="#C00"></path></svg><svg width="133.708" height="25" viewBox="-1 -1 133.708 25" id="logo-marca-claro-section-black" y="1343"><path d="M7.891 20.482l-2.733-7.724v6.308h.977V23H.017v-3.934H1V8.982H0V5.07l5.837-.009 2.146 6.082 2.172-6.082 5.723.009v3.912h-.979v10.084h.979V23H9.76v-3.934h.983v-6.308l-2.852 7.724zM25.838 5.061l2.272 14.006h.717v3.928h-5.638v-3.928h.724l-.002-1.469h-2.614l-.002 1.469h.724v3.928h-5.635v-3.928h.716l2.275-14.006h6.463zm-2.345 10.162l-.899-5.548-.88 5.548h1.779zm24.1-6.23v3.497h4.073V6.97l-1.895-1.909h-5.96l-1.896 1.904v14.133l1.896 1.896h5.966l1.895-1.896.004-5.516h-4.083l-.002 3.496H46.25V8.993h1.343zM36.039 22.991v-7.118h-1.315l-.001 3.193h.713v3.928h-6.101v-3.928h.98V8.982h-.984V5.061h9.214l1.889 1.893v5.656l-1.528 1.513 1.521 1.507v3.441h.982v3.921h-5.37v-.001zM34.708 8.982v4.124l1.336.003V8.986l-1.336-.004zm26.926-3.921l2.27 14.006h.719v3.928h-5.638v-3.928h.723v-1.469h-2.614l-.002 1.469h.721v3.928h-5.635v-3.928h.719l2.275-14.006h6.462zm-2.345 10.162l-.899-5.548-.88 5.548h1.779zm60.762-3.118c-1.244-1.251-2.752-1.859-4.464-1.859-1.71 0-3.188.608-4.407 1.859-1.247 1.25-1.854 2.76-1.854 4.498 0 1.744.607 3.253 1.854 4.472 1.22 1.247 2.697 1.886 4.407 1.886 1.712 0 3.22-.639 4.464-1.886 1.219-1.219 1.828-2.728 1.828-4.472 0-1.738-.609-3.248-1.828-4.498zm-2.115 6.851c-.637.666-1.42.988-2.349.988a3.095 3.095 0 0 1-2.319-.988c-.639-.669-.986-1.452-.986-2.353 0-.957.348-1.738.986-2.38.638-.669 1.42-.985 2.319-.956.929-.029 1.712.287 2.378.956.607.642.93 1.423.956 2.38a3.443 3.443 0 0 1-.985 2.353zM75.897 7.14c1.74-.028 3.334.523 4.725 1.626 1.363 1.075 2.262 2.469 2.727 4.151h-3.16c-.405-.812-.985-1.51-1.711-2.002-.811-.521-1.652-.785-2.58-.785-1.334 0-2.465.494-3.393 1.424-.955.956-1.42 2.091-1.391 3.427-.029 1.332.436 2.465 1.391 3.422.928.931 2.059 1.422 3.393 1.422.928 0 1.77-.26 2.58-.754a5.394 5.394 0 0 0 1.711-2.004h3.16c-.465 1.688-1.363 3.05-2.727 4.153-1.391 1.075-2.984 1.596-4.725 1.596-2.174 0-3.973-.754-5.479-2.263-1.536-1.539-2.29-3.426-2.29-5.572 0-2.179.754-4.007 2.29-5.546 1.506-1.568 3.305-2.324 5.479-2.295zm19.134 3.079c-2.028-.028-3.448.522-4.261 1.596-.521.668-.782 1.541-.87 2.641h3.017c.056-.521.23-.871.435-1.1.319-.412.84-.613 1.593-.584.639-.029 1.133.088 1.48.293.348.174.492.52.521 1.014 0 .406-.231.726-.694.93l-2.32.377c-1.072.145-1.941.405-2.608.784-1.132.667-1.682 1.741-1.653 3.282-.028 1.073.319 1.943 1.015 2.584.608.521 1.45.809 2.464.837 1.652-.028 2.955-.434 3.886-1.245v1.245h3.015v-8.88c0-1.452-.523-2.468-1.51-2.99-1.044-.554-2.205-.813-3.51-.784zm1.278 6.823l.577-.321v1.219c0 1.047-.29 1.771-.839 2.177-.582.408-1.188.609-1.885.609-.435 0-.781-.116-1.072-.347-.291-.263-.437-.64-.437-1.191 0-.608.233-1.043.728-1.363.289-.174.781-.32 1.418-.408l1.51-.375zM87.901 7.14v15.732h-3.016V7.14h3.016zm19.193 3.512l1.156-.318.785-.059.028 3.08-.929-.062c-.578 0-1.131.177-1.65.524-.464.316-.842.695-1.044 1.162-.261.432-.377 1.13-.377 2.114v5.777h-2.987V10.799l2.871.028v1.537c.609-.84 1.335-1.391 2.147-1.712zm15.307.892l-1.914-1.919 7.276-7.284 1.915 1.916-7.277 7.287zm-5.934-3.734h-2.697V0h2.697v7.81zm7.268 7.585h7.973v2.7h-7.973v-2.7z" fill-rule="evenodd" clip-rule="evenodd"></path></svg><svg width="67" height="46" viewBox="-1 -1 67 46" id="logo-marca-min-a" y="1368"><path fill="#c00" d="M57.12 44h-57L7.88 0h57z"></path><path d="M35.767 9.018h8.216v5.65h-1.418v14.629h1.418v5.686h-8.805v-5.686H36.6v-9.15l-4.09 11.196-3.986-11.196v9.15h1.418v5.686h-8.908v-5.686h1.422v-14.63H21v-5.65h8.527l3.119 8.771 3.121-8.77z" fill="#fff"></path></svg><svg width="67" height="46" viewBox="-1 -1 67 46" id="logo-marca-min-a-black" y="1414"><path fill="#c00" d="M57.12 44h-57L7.88 0h57z"></path><path d="M35.767 9.018h8.216v5.65h-1.418v14.629h1.418v5.686h-8.805v-5.686H36.6v-9.15l-4.09 11.196-3.986-11.196v9.15h1.418v5.686h-8.908v-5.686h1.422v-14.63H21v-5.65h8.527l3.119 8.771 3.121-8.77z"></path></svg><svg width="67" height="46" viewBox="-1 -1 67 46" id="logo-marca-min-b" y="1460"><path fill="#fff" d="M57.12 44h-57L7.88 0h57z"></path><path d="M35.767 9.018h8.216v5.65h-1.418v14.629h1.418v5.686h-8.805v-5.686H36.6v-9.15l-4.09 11.196-3.986-11.196v9.15h1.418v5.686h-8.908v-5.686h1.422V14.668H21v-5.65h8.527l3.119 8.771 3.121-8.771z" fill="#c00"></path></svg><svg width="67" height="46" viewBox="-1 -1 67 46" id="logo-marca-min-b-black" y="1506"><path fill="#fff" d="M57.12 44h-57L7.88 0h57z"></path><path d="M35.767 9.018h8.216v5.65h-1.418v14.629h1.418v5.686h-8.805v-5.686H36.6v-9.15l-4.09 11.196-3.986-11.196v9.15h1.418v5.686h-8.908v-5.686h1.422V14.668H21v-5.65h8.527l3.119 8.771 3.121-8.771z"></path></svg><svg width="95.879" height="28" viewBox="-1 -1 95.879 28" id="logo-marca-mobile" y="1552"><path fill="#C00" d="M14.766.033h8.217v5.653h-1.418v14.63h1.418V26h-8.805v-5.684H15.6v-9.15l-4.092 11.197-3.986-11.198v9.15h1.42V26H.03v-5.684h1.423V5.686H0V.033h8.527l3.12 8.775 3.12-8.775zm25.898 20.283h1.04V26h-8.112v-5.684h1.074v-2.152h-3.742l-.036 2.152h1.04V26H23.85v-5.684h1.04L28.147 0h9.26l3.257 20.316zm-6.588-5.584l-1.318-8.04-1.248 8.04h2.566zm24.512 5.55h1.422V26h-7.73V15.637h-1.875v4.645h1.007V26H42.64v-5.72h1.387V5.655H42.64V.034h13.28l2.67 2.74v8.114l-2.187 2.182 2.186 2.183v5.028zm-6.31-14.628h-1.91v5.924h1.91V5.654zM72.454.034l2.703 2.74v8.01h-6.273V5.756l-1.906-.036v14.596h1.906v-5.064h6.273v7.976L72.453 26h-8.98l-2.635-2.772V2.775L63.473.033h8.98zM93.88 20.315V26H85.8v-5.684h1.038v-2.152h-3.74l-.035 2.152h1.04V26H76.06v-5.684h1.005L80.325 0h9.255l3.258 20.316h1.04zm-7.626-5.584l-1.32-8.04-1.248 8.04h2.568z"></path></svg><svg width="95.879" height="28" viewBox="-1 -1 95.879 28" id="logo-marca-section" y="1580"><path fill="#C00" d="M14.767.035h8.216v5.65h-1.418v14.629h1.418V26h-8.805v-5.686H15.6v-9.149l-4.09 11.196-3.987-11.196v9.149h1.418V26H.033v-5.686h1.422V5.686H0V.036h8.527l3.118 8.771L14.767.035zm25.897 20.279h1.04V26h-8.112v-5.686h1.072v-2.149h-3.741l-.034 2.149h1.04V26H23.85v-5.686h1.041L28.148 0h9.256l3.26 20.314zm-6.588-5.58l-1.318-8.043-1.246 8.043h2.564zm24.512 5.547h1.422V26h-7.732V15.635h-1.873v4.646h1.008V26H42.64v-5.719h1.389V5.648H42.64V.035h13.28l2.669 2.739v8.112l-2.185 2.184 2.185 2.183v5.028zM52.277 5.648h-1.906v5.93h1.906v-5.93zM72.455.035l2.703 2.739v8.009h-6.275V5.755l-1.905-.035v14.595h1.905v-5.061h6.275v7.973L72.455 26h-8.98l-2.635-2.773V2.774L63.475.035h8.98zm21.424 20.279V26h-8.076v-5.686h1.037v-2.149h-3.741l-.036 2.149h1.04V26h-8.042v-5.686h1.004L80.324 0h9.256l3.259 20.314h1.04zm-7.626-5.58l-1.318-8.043-1.249 8.043h2.567z"></path></svg><svg width="95.879" height="28" viewBox="-1 -1 95.879 28" id="logo-marca-section-black" y="1608"><path d="M14.767.035h8.216v5.65h-1.418v14.629h1.418V26h-8.805v-5.686H15.6v-9.149l-4.09 11.196-3.987-11.196v9.149h1.418V26H.033v-5.686h1.422V5.686H0V.036h8.527l3.118 8.771L14.767.035zm25.897 20.279h1.04V26h-8.112v-5.686h1.072v-2.149h-3.741l-.034 2.149h1.04V26H23.85v-5.686h1.041L28.148 0h9.256l3.26 20.314zm-6.588-5.58l-1.318-8.043-1.246 8.043h2.564zm24.512 5.547h1.422V26h-7.732V15.635h-1.873v4.646h1.008V26H42.64v-5.719h1.389V5.648H42.64V.035h13.28l2.669 2.739v8.112l-2.185 2.184 2.185 2.183v5.028zM52.277 5.648h-1.906v5.93h1.906v-5.93zM72.455.035l2.703 2.739v8.009h-6.275V5.755l-1.905-.035v14.595h1.905v-5.061h6.275v7.973L72.455 26h-8.98l-2.635-2.773V2.774L63.475.035h8.98zm21.424 20.279V26h-8.076v-5.686h1.037v-2.149h-3.741l-.036 2.149h1.04V26h-8.042v-5.686h1.004L80.324 0h9.256l3.259 20.314h1.04zm-7.626-5.58l-1.318-8.043-1.249 8.043h2.567z"></path></svg><svg width="48" height="43" viewBox="-1 -1.5 48 43" id="logo-radio-marca" y="1636"><path fill="none" d="M0-.5h46v41H0z"></path><circle fill="#005CB9" cx="22.938" cy="20" r="20"></circle><path d="M11.816 10.769v1.889c-.072.02-.185.039-.34.059-.154.02-.306.029-.458.029-.15 0-.283-.012-.398-.034a.7.7 0 0 1-.286-.123.546.546 0 0 1-.171-.246 1.183 1.183 0 0 1-.06-.413V7.295c0-.138.038-.244.114-.32a.798.798 0 0 1 .31-.182c.223-.079.482-.136.777-.172.295-.037.61-.055.944-.055.906 0 1.587.191 2.046.571.459.38.689.896.689 1.544 0 .407-.105.753-.315 1.043-.21.288-.459.511-.748.668.236.322.469.624.699.906.229.282.41.538.541.768a.889.889 0 0 1-.359.503 1.032 1.032 0 0 1-.585.175c-.145 0-.269-.016-.374-.049a.907.907 0 0 1-.275-.136 1.065 1.065 0 0 1-.217-.213 2.687 2.687 0 0 1-.187-.271l-.826-1.309h-.521v.003zm.62-1.309c.25 0 .446-.064.591-.192.144-.128.216-.316.216-.566 0-.249-.08-.438-.241-.565-.161-.128-.415-.191-.762-.191-.098 0-.178.003-.236.009a3.322 3.322 0 0 0-.197.03V9.46h.629zm4.69-2.617a2.08 2.08 0 0 1 .507-.187c.227-.059.454-.089.685-.089.328 0 .618.048.87.143.253.096.415.244.488.448.117.341.246.737.384 1.191a108.307 108.307 0 0 1 .815 2.828c.132.468.247.884.346 1.245a.824.824 0 0 1-.355.222 1.707 1.707 0 0 1-.56.083 1.67 1.67 0 0 1-.399-.04.713.713 0 0 1-.265-.118.577.577 0 0 1-.168-.207 1.877 1.877 0 0 1-.113-.295l-.177-.679h-1.781c-.053.197-.104.4-.157.611a57.89 57.89 0 0 1-.157.609 1.77 1.77 0 0 1-.66.118c-.335 0-.583-.058-.743-.172a.554.554 0 0 1-.241-.478c0-.092.013-.184.04-.276.026-.091.056-.2.088-.325.046-.177.11-.396.192-.659.082-.262.172-.546.27-.851.099-.306.204-.619.315-.94l.314-.91a34.676 34.676 0 0 1 .462-1.272zm1.182 1.269c-.092.275-.195.582-.311.92-.115.337-.218.68-.31 1.028h1.22a65.662 65.662 0 0 0-.541-1.948h-.058zm5.546 4.614h-.382c-.145 0-.293-.01-.449-.03a7.481 7.481 0 0 1-.461-.074 2.35 2.35 0 0 1-.428-.123c-.362-.138-.541-.378-.541-.72V7.178c0-.138.038-.245.113-.321a.805.805 0 0 1 .311-.182 4.13 4.13 0 0 1 .895-.183c.314-.029.597-.044.846-.044.513 0 .976.062 1.392.188.416.124.774.315 1.074.574.297.259.528.584.692.977.164.394.246.859.246 1.396 0 .524-.079.981-.236 1.371-.157.39-.383.717-.674.982a2.817 2.817 0 0 1-1.048.594c-.409.13-.858.196-1.35.196zm-.551-1.427a3.67 3.67 0 0 0 .56.049c.223 0 .427-.032.615-.098.187-.066.348-.167.481-.304.134-.137.239-.315.315-.535.074-.219.113-.482.113-.79 0-.588-.139-1.031-.414-1.329-.274-.297-.643-.447-1.102-.447h-.28c-.096 0-.192.01-.29.029v3.425zm6.166 1.358c-.072.02-.186.039-.339.059s-.307.029-.458.029c-.152 0-.283-.012-.398-.034a.732.732 0 0 1-.289-.123.521.521 0 0 1-.178-.246 1.21 1.21 0 0 1-.059-.413V6.735c.072-.014.188-.032.344-.055.158-.022.309-.036.452-.036.151 0 .284.013.399.036a.696.696 0 0 1 .289.123.535.535 0 0 1 .178.246c.04.105.059.242.059.413v5.195zm.51-3.07c0-.512.08-.965.242-1.357.16-.395.379-.723.658-.99.279-.265.605-.466.982-.604a3.514 3.514 0 0 1 1.226-.208c.438 0 .849.069 1.226.208.377.138.707.339.989.604.281.267.503.595.664.99.16.393.241.846.241 1.357s-.08.966-.236 1.362a2.748 2.748 0 0 1-.654.994 2.799 2.799 0 0 1-.988.605c-.38.138-.793.207-1.24.207-.445 0-.859-.07-1.24-.212a2.767 2.767 0 0 1-.982-.614c-.275-.269-.492-.601-.649-.994s-.239-.842-.239-1.348zm1.77 0c0 .597.122 1.043.364 1.338s.568.442.975.442c.413 0 .741-.147.984-.442.242-.295.363-.741.363-1.338 0-.591-.119-1.033-.358-1.328-.24-.295-.565-.443-.979-.443-.406 0-.732.146-.979.438s-.37.737-.37 1.333zM42.762 27.65L23 28.768 3.237 27.65a.721.721 0 0 1-.707-.56L.693 14.965a.7.7 0 0 1 .679-.854h43.253c.445 0 .775.416.68.854l-1.836 12.126a.722.722 0 0 1-.707.559z" fill="#FFF"></path><path fill="#005CB9" d="M23 29.093l-.019-.001-19.753-1.117a1.04 1.04 0 0 1-1.015-.812l-.005-.022L.374 15.023a1.024 1.024 0 0 1 .999-1.237h43.253a1.026 1.026 0 0 1 1 1.236L43.789 27.15l-.003.012a1.04 1.04 0 0 1-1.015.812L23 29.093zM2.85 27.03a.4.4 0 0 0 .387.295h.019L23 28.441l19.752-1.117h.012a.401.401 0 0 0 .387-.295l1.836-12.124.004-.011a.392.392 0 0 0-.075-.32.37.37 0 0 0-.288-.139H1.373a.372.372 0 0 0-.288.139.384.384 0 0 0-.074.32l.004.021L2.85 27.03z"></path><path fill="#E2231A" d="M11.919 16.089h2.969v2.042h-.513v5.285h.513v2.054h-3.181v-2.054h.514V20.11l-1.478 4.045-1.44-4.045v3.306h.513v2.054H6.597v-2.054h.513v-5.285h-.527v-2.042h3.082l1.126 3.168 1.128-3.168zm9.356 7.327h.375v2.054h-2.93v-2.054h.389v-.775h-1.353l-.013.775h.375v2.054H15.2v-2.054h.376l1.177-7.339h3.344l1.178 7.339zm-2.379-2.018l-.476-2.904-.451 2.904h.927zm8.854 2.004h.516v2.067h-2.793v-3.743h-.677v1.676h.363v2.067H21.99v-2.067h.5v-5.284h-.5V16.09h4.796l.964.989v2.931l-.789.789.789.79v1.813zm-2.279-5.284h-.688v2.143h.688v-2.143zm7.289-2.029l.979.989v2.893h-2.268v-1.816l-.688-.013v5.272h.688v-1.828h2.268v2.88l-.979 1.004h-3.244l-.953-1.001v-7.39l.953-.989 3.244-.001zm7.74 7.327v2.054h-2.918v-2.054h.376v-.775h-1.354l-.012.775h.376v2.054h-2.905v-2.054h.363l1.178-7.339h3.344l1.177 7.339h.375zm-2.755-2.018l-.476-2.904-.451 2.904h.927z"></path><path fill="#FFF" d="M21.172 30.626l.129-.646a.254.254 0 0 1 .294-.194c1.115.188 1.693.188 2.807 0a.255.255 0 0 1 .295.194l.129.646c.025.133-.078.267-.232.292-1.267.214-1.923.214-3.19 0-.154-.025-.258-.159-.232-.292zm-1.276 1.661l.187-.63c.039-.13.199-.196.357-.154 1.673.442 3.447.442 5.121 0 .157-.042.317.024.355.154.076.251.113.378.188.63.039.129-.072.279-.25.326a11.222 11.222 0 0 1-5.708 0c-.177-.049-.289-.197-.25-.326z"></path><path fill="#FFF" d="M18.236 33.77l.252-.606c.051-.125.238-.166.417-.099 2.568 1.033 5.619.973 8.188 0 .179-.067.365-.026.417.099l.252.606c.051.125-.066.293-.263.369-3.188.969-5.827.963-9.001 0-.196-.077-.313-.244-.262-.369zm2.872 2.664l.088-.651c.019-.134.208-.22.422-.196 1.102.116 1.661.116 2.762 0 .214-.023.404.062.422.196l.089.651c.019.133-.158.269-.392.293-1.197.125-1.805.125-3.003 0-.231-.025-.406-.161-.388-.293zm-1.892 1.748l.158-.64c.033-.13.251-.188.488-.137 2.198.348 4.076.348 6.275 0 .235-.052.454.007.487.137l.159.64c.033.129-.146.289-.402.346-2.208.514-4.553.451-6.762 0-.255-.058-.435-.217-.403-.346z"></path></svg><svg fill="#c00" viewBox="-1 36 139.206 40" width="139.206" height="40" id="logo-repsol" y="1679"><path d="M21.402 37.289L16.826 50.1l-4.528-12.811L0 37.311v8.231h2.104v21.242H.03v8.273h12.899v-8.273h-2.063v-13.29l5.759 16.267 6.02-16.267v13.29h-2.074v8.273H33.47v-8.273h-2.073V45.542h2.073v-8.231zm26.219 9.716l1.904 11.678H45.77l1.851-11.678zm-6.78-9.716l-4.797 29.484h-1.513v8.264H46.41v-8.264h-1.522l.01-3.093h5.508v3.093h-1.532v8.264h11.889v-8.264H59.25l-4.797-29.484H40.841zm52.501.012l-3.998 4.005v29.746l3.998 3.995h12.579l3.994-3.995V59.444h-8.602v7.362h-2.834V45.571h2.834v7.363h8.583V41.315l-3.996-4.014zm30.723 9.704l1.906 11.678h-3.757l1.851-11.678zm-6.779-9.716l-4.797 29.484h-1.512v8.264h11.878v-8.264h-1.522l.009-3.093h5.51v3.093h-1.523v8.264h11.878v-8.264h-1.512l-4.787-29.484h-13.622z"></path><path fill="#FFF" d="M80.43 37H67.211c-7.571 2.714-12.999 9.935-12.999 18.446 0 10.826 8.772 19.61 19.608 19.61s19.61-8.784 19.61-19.61c.001-8.511-5.427-15.732-13-18.446z"></path><g fill="#0B1742"><path d="M85.18 55.446c0-6.269-5.089-11.356-11.359-11.356s-11.355 5.088-11.355 11.356c0 6.271 5.086 11.359 11.355 11.359 6.27.001 11.359-5.088 11.359-11.359zm-13.752 7h-2.625V56.68h-3.664v-2.635l3.685-.009v-5.89h7.951c2.436 0 4.499 1.691 4.499 4.126 0 2.433-1.825 4.417-4.547 4.417l3.345 5.798h-2.786l-3.354-5.808h-2.503v5.767z"></path><path d="M78.479 52.302c0-.95-.691-1.601-1.642-1.601l-5.43.01v3.326c.021-.022 5.42 0 5.42 0 .96 0 1.652-.771 1.652-1.735z"></path></g><path d="M91.178 55.446c0-9.584-7.772-17.354-17.357-17.354-9.584 0-17.355 7.771-17.355 17.354 0 8.294 5.818 15.225 13.592 16.947v-3.186c-6.051-1.653-10.507-7.19-10.507-13.762 0-7.88 6.39-14.271 14.271-14.271 7.882 0 14.271 6.391 14.271 14.271 0 6.581-4.445 12.108-10.505 13.762v3.186c7.77-1.722 13.59-8.653 13.59-16.947z"></path><path d="M73.571 69.709c-.01-.01-.01-.021-.021-.03a.462.462 0 0 0-.279-.19.858.858 0 0 0-.551.04v-.802h.73c.052 0 .07-.02.07-.069v-.451c0-.049-.019-.07-.07-.07h-1.272c-.05 0-.069.021-.069.07v1.932c0 .041.02.061.059.069l.502.131c.02.012.03.012.04-.01.01-.01.021-.021.021-.039v-.14c0-.051.009-.091.028-.111.011-.009.021-.021.03-.031.021-.009.04-.019.06-.019h.041c.021 0 .05.01.06.019.021.01.03.022.03.031.021.021.031.061.031.121v1.051c0 .041-.01.069-.041.091a.127.127 0 0 1-.09.04h-.041c-.038 0-.069-.01-.09-.04a.133.133 0 0 1-.039-.091v-.359c0-.052-.021-.071-.071-.052l-.48.132c-.029-.011-.049.02-.049.068v.221c0 .091.02.181.049.26.04.082.081.152.141.21.06.063.131.111.211.143a.6.6 0 0 0 .26.048h.2c.089 0 .18-.02.26-.048a.697.697 0 0 0 .353-.353.597.597 0 0 0 .048-.26v-1.213a.449.449 0 0 0-.061-.299zm1.933-1.202a.743.743 0 0 0-.14-.209.6.6 0 0 0-.209-.141.577.577 0 0 0-.263-.05h-.2a.734.734 0 0 0-.261.05.759.759 0 0 0-.21.141.576.576 0 0 0-.139.209.56.56 0 0 0-.052.261v2.453a.675.675 0 0 0 .191.47.608.608 0 0 0 .21.143c.08.038.171.048.261.048h.2c.091 0 .181-.02.263-.048a.783.783 0 0 0 .209-.143.562.562 0 0 0 .14-.21.584.584 0 0 0 .051-.26v-2.453a.735.735 0 0 0-.051-.261zm-.57 2.683c0 .042-.011.071-.041.09a.125.125 0 0 1-.09.041h-.04c-.042 0-.07-.01-.09-.041a.119.119 0 0 1-.042-.09v-2.403c0-.039.012-.07.042-.09a.127.127 0 0 1 .09-.04h.04c.039 0 .07.01.09.04.02.02.041.061.041.09v2.403zm-2.615 1.543l-.03-.25c0-.031-.021-.041-.041-.041h-.371c-.028 0-.038.01-.038.041l-.02.189-.19 1.683c0 .031.01.041.029.041h.25c.021 0 .04-.01.04-.041l.02-.299h.171l.02.299c0 .031.021.041.04.041h.25c.031 0 .041-.01.031-.041l-.161-1.622zm-.321 1.01l.051-.749h.019l.052.749h-.122zm2.885-.98a.276.276 0 0 0-.03-.12c-.02-.038-.04-.08-.079-.109a.551.551 0 0 0-.109-.081.335.335 0 0 0-.143-.028h-.109a.352.352 0 0 0-.139.028.278.278 0 0 0-.111.081.385.385 0 0 0-.079.109.315.315 0 0 0-.031.142v1.281c0 .05.01.09.031.141.019.038.038.08.079.109a.403.403 0 0 0 .111.081c.038.02.088.028.139.028h.109a.387.387 0 0 0 .143-.028c.038-.02.079-.041.109-.081a.454.454 0 0 0 .079-.109.313.313 0 0 0 .03-.141v-1.303zm-.321 1.294c0 .019-.009.029-.019.049a.086.086 0 0 1-.051.02h-.019c-.022 0-.031-.01-.052-.02a.076.076 0 0 1-.02-.049v-1.273c0-.021.01-.031.02-.041s.029-.019.052-.019h.019c.02 0 .029.009.051.019.01.01.01.02.019.029v1.285zm1.162-1.052l.251-.071c.019-.01.04-.019.04-.05v-.111c0-.039-.012-.079-.021-.119 0-.011 0-.011-.01-.021-.019-.039-.038-.08-.08-.108a.326.326 0 0 0-.249-.11h-.111a.406.406 0 0 0-.141.028c-.038.02-.078.041-.109.082a.5.5 0 0 0-.081.108c-.009.03-.019.061-.019.101v.372c0 .038.01.079.019.099.01.03.031.05.062.079l.36.282c.021.009.03.029.03.05.01.02.01.038.01.061v.381c0 .019-.01.029-.02.049-.01.01-.03.02-.052.02h-.019c-.02 0-.029-.01-.051-.02a.077.077 0 0 1-.021-.049v-.342c0-.028-.009-.039-.039-.028l-.252.068c-.019.011-.038.02-.038.051v.27c0 .05.01.09.028.141.022.041.042.08.081.11a.502.502 0 0 0 .109.08.345.345 0 0 0 .141.028h.111c.049 0 .091-.01.139-.028a.272.272 0 0 0 .11-.08.384.384 0 0 0 .08-.11.318.318 0 0 0 .031-.141v-.48c0-.029-.012-.061-.021-.09-.01-.031-.028-.051-.06-.08l-.359-.271c-.01-.01-.031-.029-.031-.039-.01-.009-.01-.03-.01-.051v-.249c0-.021.01-.03.021-.052.01-.01.029-.02.048-.02h.021c.021 0 .03.01.05.02.011.01.021.031.021.052v.18c.001.008.01.017.031.008zm-2.041-.553h-.253c-.028 0-.038.01-.038.041v.902l-.19-.59-.101-.3c0-.012-.01-.021-.021-.032-.01-.011-.021-.011-.031-.011h-.179c-.031 0-.041.011-.041.043v1.872c0 .029.01.039.041.039h.241c.028 0 .038-.01.038-.039v-.923l.301.923c0 .01.011.02.021.029s.021.01.031.01h.181c.028 0 .038-.01.038-.039v-1.873c-.01-.042-.019-.052-.038-.052zm-.582-.17c0-.021.011-.03.029-.03a.1.1 0 0 1 .071.02l.079.043c.04.028.06.028.13.028h.04c.09 0 .142-.04.142-.15v-.141h-.182v.062c0 .021-.009.03-.029.03-.031 0-.041 0-.069-.02l-.082-.043c-.049-.02-.07-.029-.129-.029h-.042c-.089 0-.138.041-.138.151v.14h.19v-.061h-.01z"></path></svg><svg width="34" height="34" viewBox="-1 -1 34 34" id="mail-a" y="1719"><path fill="#1F2B38" d="M23 9H9c-.963 0-1.75.788-1.75 1.75v10.5c0 .963.787 1.75 1.75 1.75h14c.963 0 1.75-.787 1.75-1.75v-10.5C24.75 9.788 23.963 9 23 9zm-.256 10.757l-1.238 1.236-3.756-3.755-1.75 1.75-1.75-1.75-3.756 3.755-.31-.309-.619-.619-.309-.309L13.013 16l-3.756-3.757.309-.309.619-.619.31-.309L16 16.513l5.506-5.506.31.309.618.619.311.309L18.987 16l3.757 3.757z"></path></svg><svg width="34" height="34" viewBox="-1 -1 34 34" id="mail-b" y="1753"><path fill="#FFF" d="M23 9H9c-.963 0-1.75.788-1.75 1.75v10.5c0 .963.787 1.75 1.75 1.75h14c.963 0 1.75-.787 1.75-1.75v-10.5C24.75 9.788 23.963 9 23 9zm-.256 10.757l-1.238 1.236-3.756-3.755-1.75 1.75-1.75-1.75-3.756 3.755-.31-.309-.619-.619-.309-.309L13.013 16l-3.756-3.757.309-.309.619-.619.31-.309L16 16.513l5.506-5.506.31.309.618.619.311.309L18.987 16l3.757 3.757z"></path></svg><svg width="54" height="46" viewBox="-1 -1 54 46" id="menu-mobile-b" y="1787"><path fill="none" d="M0 0h52v44H0z"></path><path d="M16 15h20v2H16zm0-5h20v2H16zm0 10h20v2H16z" fill="#FFF"></path></svg><svg width="18" height="18" viewBox="-1 -1 18 18" id="more-a" y="1833"><path fill="#221F1F" d="M9.214 6.778h3.173v2.294H9.214v3.586H6.796V9.072H3.614V6.778h3.182V3.342h2.418v3.436z"></path></svg><svg width="18" height="18" viewBox="-1 -1 18 18" id="more-b" y="1851"><path fill="#FFF" d="M9.214 6.778h3.172v2.294H9.214v3.586H6.796V9.072H3.614V6.778h3.182V3.342h2.418v3.436z"></path></svg><svg id="newsletter-a" width="34" height="34" viewBox="-1 -1 34 34" y="1869"><path fill="#C00C00" d="M26.292 14.657a.733.733 0 1 0-1.466 0v6.502c0 .4-.339.795-.734.795H7.914c-.397 0-.739-.395-.739-.795V10.868c0-.399.341-.679.739-.679h16.175c.158 0 .237.027.126.138l-7.174 7.179c-.554.552-1.527.533-2.081-.02l-1.39-1.415h-.004l-3.55-3.522a.732.732 0 0 0-1.034.006l-.005.005a.74.74 0 0 0 0 1.046l2.51 2.52-2.51 2.507a.736.736 0 1 0 1.039 1.042l2.514-2.51c.015.014.041.021.058.04l1.337 1.33a2.895 2.895 0 0 0 2.074.856c.786 0 1.526-.288 2.079-.841l1.396-1.384 2.511 2.509a.734.734 0 0 0 1.037.002l.002-.002a.739.739 0 0 0 0-1.038l-2.506-2.503 4.736-4.715c.862-.863.754-1.532.616-1.873-.146-.341-.563-.828-1.78-.828H7.914c-1.216 0-2.206.932-2.206 2.147v10.292c0 1.214.99 2.266 2.206 2.266h16.175c1.21 0 2.203-1.052 2.203-2.266v-6.5z"></path></svg><svg id="newsletter-b" width="34" height="34" viewBox="-1 -1 34 34" y="1903"><path fill="#FFF" d="M26.292 14.657a.733.733 0 1 0-1.466 0v6.502c0 .4-.339.795-.734.795H7.914c-.397 0-.739-.395-.739-.795V10.868c0-.399.341-.679.739-.679h16.175c.158 0 .237.027.126.138l-7.174 7.179c-.554.552-1.527.533-2.081-.02l-1.39-1.415h-.004l-3.55-3.522a.732.732 0 0 0-1.034.006l-.005.005a.74.74 0 0 0 0 1.046l2.51 2.52-2.51 2.507a.736.736 0 1 0 1.039 1.042l2.514-2.51c.015.014.041.021.058.04l1.337 1.33a2.895 2.895 0 0 0 2.074.856c.786 0 1.526-.288 2.079-.841l1.396-1.384 2.511 2.509a.734.734 0 0 0 1.037.002l.002-.002a.739.739 0 0 0 0-1.038l-2.506-2.503 4.736-4.715c.862-.863.754-1.532.616-1.873-.146-.341-.563-.828-1.78-.828H7.914c-1.216 0-2.206.932-2.206 2.147v10.292c0 1.214.99 2.266 2.206 2.266h16.175c1.21 0 2.203-1.052 2.203-2.266v-6.5z"></path></svg><svg id="newsletter-c" width="34" height="34" viewBox="-1 -1 34 34" y="1937"><path fill="#000C00" d="M26.292 14.657a.733.733 0 1 0-1.465 0v6.502c0 .399-.339.795-.733.795H7.914c-.397 0-.739-.396-.739-.795V10.868c0-.399.341-.679.739-.679h16.175c.158 0 .237.027.126.138l-7.174 7.179c-.554.553-1.526.533-2.081-.02l-1.39-1.416h-.004l-3.55-3.522a.732.732 0 0 0-1.034.006l-.005.005a.74.74 0 0 0 0 1.046l2.51 2.52-2.51 2.507a.736.736 0 0 0 1.039 1.043l2.514-2.511c.015.015.041.021.058.04l1.337 1.33a2.89 2.89 0 0 0 2.074.855c.786 0 1.525-.287 2.079-.84l1.396-1.385 2.512 2.51a.736.736 0 0 0 1.037.002l.002-.002a.742.742 0 0 0 0-1.039l-2.506-2.502 4.735-4.715c.862-.863.754-1.532.616-1.873-.146-.341-.563-.828-1.78-.828H7.914c-1.216 0-2.206.932-2.206 2.146v10.292c0 1.215.99 2.267 2.206 2.267h16.175c1.21 0 2.203-1.052 2.203-2.267v-6.498z"></path></svg><svg width="26" height="26" viewBox="-1 -1 26 26" id="right-a" y="1971"><path fill="#C00" d="M9.22 15.97L13.189 12 9.22 8.03l1.06-1.06L15.311 12l-5.031 5.029z"></path></svg><svg width="26" height="26" viewBox="-1 -1 26 26" id="right-b" y="1997"><path fill="#FFF" d="M9.22 15.97L13.189 12 9.22 8.03l1.06-1.06L15.311 12l-5.031 5.03z"></path></svg><svg width="26" height="26" viewBox="-1 -1 26 26" id="right-c" y="2023"><path fill="#221F1F" d="M9.22 15.97L13.189 12 9.22 8.03l1.06-1.061L15.311 12l-5.031 5.029-1.06-1.059z"></path></svg><svg id="right-external-links-a" width="18" height="18" viewBox="23 -1.5 18 18" y="2049"><path d="M34.914 8.139a.45.45 0 0 1-.636 0l-5.513-5.513a.45.45 0 0 1 0-.636l.32-.32a.452.452 0 0 1 .637 0l5.512 5.512a.449.449 0 0 1 0 .636l-.32.321z"></path><path d="M28.766 13.01a.45.45 0 0 1 0-.636l5.512-5.513a.452.452 0 0 1 .637 0l.32.32a.449.449 0 0 1 0 .636l-5.512 5.512a.449.449 0 0 1-.636 0l-.321-.319z"></path><path fill="none" d="M24-.5h16v16H24z"></path></svg><svg width="34" height="34" viewBox="-1 -1 34 34" id="search-a" y="2067"><g fill="#221F1F"><path d="M13.821 18.821l-5.019 5.018a.412.412 0 0 1-.588 0l-.054-.053a.415.415 0 0 1-.121-.295c0-.11.042-.216.121-.294l5.019-5.019-.735-.734-5.018 5.018A1.45 1.45 0 0 0 7 23.491c0 .39.152.754.426 1.029l.055.053c.273.277.639.427 1.028.427s.754-.15 1.028-.427l5.018-5.018-.734-.734z"></path><path d="M18 7a7 7 0 1 0 0 14 7 7 0 0 0 0-14zm0 13a6 6 0 1 1 0-12 6 6 0 0 1 0 12z"></path></g></svg><svg width="34" height="34" viewBox="-1 -1 34 34" id="search-b" y="2101"><path opacity=".2" fill="none" d="M0 0h32v32H0z"></path><g fill="#FFF"><path d="M13.821 18.821l-5.019 5.018a.412.412 0 0 1-.588 0l-.054-.053a.415.415 0 0 1-.121-.295c0-.11.042-.216.121-.294l5.019-5.019-.735-.734-5.018 5.018A1.45 1.45 0 0 0 7 23.491c0 .39.152.754.426 1.029l.055.053c.273.277.639.427 1.028.427s.754-.15 1.028-.427l5.018-5.018-.734-.734z"></path><path d="M18 7a7 7 0 1 0 0 14 7 7 0 0 0 0-14zm0 13a6 6 0 1 1 0-12 6 6 0 0 1 0 12z"></path></g></svg><svg width="10" height="28" viewBox="-1 -1 10 28" id="separator-a" y="2135"><path fill="#D63333" d="M2.763 26H.652L5.236 0h2.112z"></path></svg><svg width="10" height="28" viewBox="-1 -1 10 28" id="separator-b" y="2163"><path fill="#E2E2E2" d="M2.763 26H.652L5.236 0h2.111L2.763 26z"></path></svg><svg id="separator-c" width="10" height="28" viewBox="-1 -1 10 28" y="2191"><path d="M2.763 26H.652L5.236 0h2.111L2.763 26z"></path></svg><svg id="spanish-lang" width="32" height="32" viewBox="-1 -1 32 32" y="2219"><path fill="#FFC400" d="M30 15c0-2.735-.744-5.292-2.023-7.5H2.024a14.903 14.903 0 0 0 0 15h25.953A14.912 14.912 0 0 0 30 15z"></path><path fill="#C60B1E" d="M27.977 22.5H2.024C4.619 26.979 9.452 30 15 30s10.382-3.021 12.977-7.5zM15 0C9.453 0 4.619 3.021 2.024 7.5h25.953C25.381 3.021 20.548 0 15 0z"></path></svg><svg width="16" height="13" viewBox="-1 -1 16 13" id="twitter-14x11-a" y="2251"><path fill="#49A3DB" fill-rule="evenodd" d="M12.072 3.07c.026 3.66-2.727 7.893-7.821 7.93A7.857 7.857 0 0 1 0 9.786a6.3 6.3 0 0 0 .66.033 5.568 5.568 0 0 0 3.432-1.208 2.774 2.774 0 0 1-2.601-1.904 2.812 2.812 0 0 0 1.252-.057A2.768 2.768 0 0 1 .501 3.951c.376.17.803.292 1.255.303A2.77 2.77 0 0 1 .875.564 7.869 7.869 0 0 0 6.6 3.42 2.768 2.768 0 0 1 9.272 0 2.764 2.764 0 0 1 11.3.86a5.487 5.487 0 0 0 1.755-.685 2.781 2.781 0 0 1-1.21 1.54 5.404 5.404 0 0 0 1.587-.446 5.638 5.638 0 0 1-1.368 1.443c.005.117.007.238.008.357z"></path></svg><svg width="34" height="34" viewBox="-1 -1 34 34" id="twitter-a" y="2264"><path fill="#55ACEE" d="M22.807 12.414c.007.149.01.303.01.454.033 4.66-3.47 10.049-9.954 10.094a9.979 9.979 0 0 1-5.41-1.545c.277.027.558.044.839.042a7.103 7.103 0 0 0 4.369-1.536 3.534 3.534 0 0 1-3.311-2.424c.216.039.438.059.663.057.319 0 .649-.045.948-.129a3.498 3.498 0 0 1-2.836-3.436v-.042c.438.259 1.004.413 1.581.427a3.53 3.53 0 0 1-1.135-4.695 10.004 10.004 0 0 0 7.284 3.632 3.52 3.52 0 0 1 3.4-4.351 3.517 3.517 0 0 1 2.58 1.093 6.968 6.968 0 0 0 2.233-.871 3.546 3.546 0 0 1-1.539 1.961 6.857 6.857 0 0 0 2.019-.569 7.178 7.178 0 0 1-1.741 1.838z"></path></svg><svg width="34" height="34" viewBox="-1 -1 34 34" id="twitter-b" y="2298"><path fill="#FFF" d="M22.807 12.414c.007.149.01.303.01.454.033 4.66-3.47 10.049-9.954 10.094a9.979 9.979 0 0 1-5.41-1.545c.277.027.558.044.839.042a7.103 7.103 0 0 0 4.369-1.536 3.534 3.534 0 0 1-3.311-2.424c.216.039.438.059.663.057.319 0 .649-.045.948-.129a3.498 3.498 0 0 1-2.836-3.436v-.042c.438.259 1.004.413 1.581.427a3.53 3.53 0 0 1-1.135-4.695 10.004 10.004 0 0 0 7.284 3.632 3.52 3.52 0 0 1 3.4-4.351 3.517 3.517 0 0 1 2.58 1.093 6.968 6.968 0 0 0 2.233-.871 3.546 3.546 0 0 1-1.539 1.961 6.857 6.857 0 0 0 2.019-.569 7.178 7.178 0 0 1-1.741 1.838z"></path></svg><svg width="27" height="27" viewBox="-1 -1 27 27" id="twitter-c" y="2332"><path fill="#03a3d8" d="M19.084 9.046c.007.127.01.26.01.39.027 3.993-2.975 8.613-8.533 8.65a8.536 8.536 0 0 1-4.636-1.323 6.11 6.11 0 0 0 4.464-1.281 3.029 3.029 0 0 1-2.838-2.078 3.137 3.137 0 0 0 1.38-.06 3.004 3.004 0 0 1-2.43-2.947v-.036c.375.222.86.354 1.355.366a3.027 3.027 0 0 1-.973-4.024 8.578 8.578 0 0 0 6.244 3.113 3.016 3.016 0 0 1 2.914-3.729 3.018 3.018 0 0 1 2.212.937 5.987 5.987 0 0 0 1.914-.747 3.03 3.03 0 0 1-1.32 1.68 5.831 5.831 0 0 0 1.73-.486c-.4.608-.904 1.14-1.492 1.574z"></path></svg><svg width="27" height="27" viewBox="-1 -1 27 27" id="twitter-d" y="2359"><path fill="#FFF" d="M19.084 9.046c.007.127.01.26.01.39.027 3.993-2.975 8.613-8.533 8.65a8.536 8.536 0 0 1-4.636-1.323 6.11 6.11 0 0 0 4.464-1.281 3.029 3.029 0 0 1-2.838-2.078 3.137 3.137 0 0 0 1.38-.06 3.004 3.004 0 0 1-2.43-2.947v-.036c.375.222.86.354 1.355.366a3.027 3.027 0 0 1-.973-4.024 8.578 8.578 0 0 0 6.244 3.113 3.016 3.016 0 0 1 2.914-3.729 3.018 3.018 0 0 1 2.212.937 5.987 5.987 0 0 0 1.914-.747 3.03 3.03 0 0 1-1.32 1.68 5.831 5.831 0 0 0 1.73-.486c-.4.608-.904 1.14-1.492 1.574z"></path></svg><svg width="18" height="18" viewBox="-1 -1 18 18" id="update-button-b" y="2386"><path fill="none" d="M0 0h16v16H0z"></path><path fill="#FFF" d="M8 2.276a5.74 5.74 0 0 1 3.937 1.568l-1.42.516L14.862 8l.982-5.584-1.6.584A8.002 8.002 0 0 0 .43 5.402l2.15.737A5.732 5.732 0 0 1 8 2.275zm0 11.45a5.73 5.73 0 0 1-3.933-1.566l1.415-.52L1.137 8l-.982 5.583L1.757 13A8.01 8.01 0 0 0 8 16c3.548 0 6.71-2.38 7.688-5.783l-2.186-.63a5.75 5.75 0 0 1-5.503 4.138z"></path><path fill="none" d="M0 0h16v16H0z"></path></svg><svg width="54" height="46" viewBox="-1 -1 54 46" id="user-mobile-b" y="2404"><path fill="none" d="M0 0h52v44H0z"></path><g fill="#FFF"><path d="M26 16a4.5 4.5 0 1 0 0-9 4.5 4.5 0 0 0 0 9zm0-8a3.5 3.5 0 1 1 0 7 3.5 3.5 0 1 1 0-7zM30 17h-8a3 3 0 0 0-3 2.999v5h14v-5A3 3 0 0 0 30 17zm0 6.999v-3h-1v3h-6v-3h-1v3h-2v-4a2 2 0 0 1 2-2h8a2 2 0 0 1 2 2v4h-2z"></path></g></svg></svg>